<?xml version="1.0" standalone="no"?><!DOCTYPE svg PUBLIC "-//W3C//DTD SVG 1.1//EN" "http://www.w3.org/Graphics/SVG/1.1/DTD/svg11.dtd" ><svg xmlns="http://www.w3.org/2000/svg"><metadata></metadata><defs><font id="DINCond-Black:1166835789" horiz-adv-x="1140"><font-face font-family="DINCond-Black" font-weight="500" font-stretch="normal" units-per-em="1000" panose-1="0 0 0 0 0 0 0 0 0 0" ascent="983" descent="-207" x-height="0" bbox="-102 -207 1098 983" underline-thickness="77" underline-position="-115" unicode-range="U+0020-fb02" /><missing-glyph horiz-adv-x="206"  /><glyph glyph-name="space" unicode=" " d="" /><glyph glyph-name="exclam" unicode="!" d="M214 207 l0 505 l-134 0 l0 -505 l134 0 ZM222 0 l0 150 l-150 0 l0 -150 l150 0 Z" /><glyph glyph-name="quotedbl" unicode="&quot;" d="M200 501 l0 211 l-122 0 l0 -211 l122 0 ZM405 501 l0 211 l-121 0 l0 -211 l121 0 Z" /><glyph glyph-name="numbersign" unicode="#" d="M626 420 l0 128 l-66 0 l26 164 l-142 0 l-26 -164 l-110 0 l26 164 l-142 0 l-26 -164 l-91 0 l0 -128 l71 0 l-17 -107 l-87 0 l0 -128 l66 0 l-29 -185 l142 0 l29 185 l110 0 l-29 -185 l142 0 l29 185 l91 0 l0 128 l-70 0 l17 107 l86 0 ZM398 420 l-17 -107 l-110 0 l17 107 l110 0 Z" /><glyph glyph-name="dollar" unicode="$" d="M438 203 q1 94 -24 138 q-26 44 -92 68 l-89 36 q-30 12 -40 27 q-10 15 -9 48 q0 18 3 30 q2 12 9 21 q6 8 16 14 q10 5 25 5 q16 0 25 -5 q10 -5 16 -13 q9 -12 11 -29 q1 -16 1 -35 l142 0 q0 54 -13 96 q-13 42 -42 69 q-15 14 -34 24 q-19 10 -43 15 l0 94 l-126 0 l0 -96 q-19 -6 -36 -15 q-17 -9 -32 -22 q-32 -28 -48 -68 q-16 -40 -16 -90 q0 -81 24 -120 q24 -39 78 -59 l90 -37 q37 -14 50 -33 q13 -19 12 -68 q0 -22 -3 -36 q-4 -15 -11 -24 q-7 -9 -18 -13 q-11 -5 -27 -5 q-16 0 -27 5 q-11 5 -17 12 q-9 11 -12 27 q-3 16 -3 38 l-142 0 q0 -54 10 -93 q11 -39 37 -65 q16 -16 39 -28 q23 -12 52 -18 l0 -112 l126 0 l0 113 q29 7 53 19 q23 11 39 27 q27 27 37 66 q10 38 9 92 l0 0 Z" /><glyph glyph-name="%" unicode="%" d="M226 562 l0 72 q-2 43 -28 65 q-27 21 -64 21 q-37 0 -64 -21 q-27 -22 -28 -65 l0 -72 q1 -44 28 -65 q27 -21 64 -21 q37 0 64 21 q26 21 28 65 l0 0 ZM480 86 l0 77 q-2 48 -29 71 q-29 23 -68 23 q-39 0 -68 -23 q-27 -23 -29 -71 l0 -77 q2 -48 29 -71 q29 -23 68 -23 q39 0 68 23 q27 23 29 71 l0 0 ZM362 712 l-64 0 l-156 -712 l64 0 l156 712 ZM156 564 q0 -14 -6 -19 q-7 -6 -16 -6 q-10 0 -16 6 q-7 5 -7 19 l0 68 q0 13 7 19 q6 6 16 6 q9 0 16 -6 q6 -6 6 -19 l0 -68 ZM407 88 q0 -15 -7 -21 q-7 -7 -17 -7 q-10 0 -17 7 q-7 6 -7 21 l0 73 q0 15 7 21 q7 7 17 7 q10 0 17 -7 q7 -6 7 -21 l0 -73 Z" /><glyph glyph-name="ampersand" unicode="&amp;" d="M506 0 l-97 158 q22 45 39 107 q16 61 18 122 l-112 0 q-2 -31 -6 -59 q-4 -28 -12 -51 l-59 93 q34 37 57 83 q23 47 24 109 q0 66 -37 111 q-37 45 -113 47 q-58 1 -101 -38 q-44 -39 -46 -130 q1 -47 21 -88 q20 -41 46 -74 q-45 -47 -71 -99 q-25 -53 -26 -111 q1 -89 48 -138 q46 -49 124 -50 q42 0 75 15 q33 15 60 43 l31 -50 l137 0 ZM274 152 q-14 -22 -29 -31 q-15 -9 -31 -9 q-24 0 -41 20 q-17 19 -18 57 q0 22 9 46 q9 24 29 47 l81 -130 ZM240 560 q0 -26 -7 -45 q-7 -19 -22 -38 q-11 13 -21 36 q-10 23 -11 43 q0 25 9 35 q9 9 21 9 q13 0 22 -11 q9 -10 9 -29 l0 0 Z" /><glyph glyph-name="quoteright" unicode="&#x2019;" d="M198 570 l0 142 l-142 0 l0 -247 l142 105 Z" /><glyph glyph-name="parenleft" unicode="(" d="M248 -4 q-18 18 -33 34 q-14 16 -25 34 q-7 13 -11 34 q-3 20 -3 49 l0 418 q0 29 3 49 q4 21 11 34 q11 18 25 34 q15 16 33 34 l-90 90 q-26 -25 -49 -51 q-23 -25 -40 -54 q-17 -30 -22 -63 q-5 -34 -5 -67 l0 -430 q0 -33 5 -66 q5 -34 22 -64 q17 -29 40 -54 q23 -26 49 -51 l90 90 Z" /><glyph glyph-name="parenright" unicode=")" d="M248 141 l0 430 q0 33 -5 67 q-5 33 -22 63 q-17 29 -40 54 q-23 26 -49 51 l-90 -90 q18 -18 33 -34 q14 -16 25 -34 q7 -13 11 -34 q3 -20 3 -49 l0 -418 q0 -29 -3 -49 q-4 -21 -11 -34 q-11 -18 -25 -34 q-15 -16 -33 -34 l90 -90 q26 25 49 51 q23 25 40 54 q17 30 22 64 q5 33 5 66 l0 0 Z" /><glyph glyph-name="asterisk" unicode="*" d="M405 464 l-101 52 l101 52 l-46 80 l-95 -61 l5 125 l-94 0 l5 -125 l-96 61 l-45 -80 l100 -52 l-100 -52 l45 -79 l96 60 l-5 -125 l94 0 l-5 125 l95 -60 l46 79 Z" /><glyph glyph-name="plus" unicode="+" d="M430 231 l0 128 l-130 0 l0 130 l-128 0 l0 -130 l-130 0 l0 -128 l130 0 l0 -130 l128 0 l0 130 l130 0 Z" /><glyph glyph-name="comma" unicode="," d="M198 -74 l0 224 l-142 0 l0 -329 l142 105 Z" /><glyph glyph-name="hyphen" unicode="-" d="M250 231 l0 128 l-208 0 l0 -128 l208 0 Z" /><glyph glyph-name="." unicode="." d="M202 0 l0 150 l-150 0 l0 -150 l150 0 Z" /><glyph glyph-name="slash" unicode="/" d="M318 786 l-124 0 l-185 -860 l124 0 l185 860 Z" /><glyph glyph-name="0" unicode="0" d="M388 166 l0 380 q0 46 -12 76 q-13 30 -37 52 q-24 23 -57 35 q-34 11 -70 11 q-36 0 -69 -11 q-34 -12 -58 -35 q-24 -22 -36 -52 q-13 -30 -13 -76 l0 -380 q0 -46 13 -76 q12 -30 36 -52 q24 -23 58 -35 q33 -11 69 -11 q36 0 70 11 q33 12 57 35 q24 22 37 52 q12 30 12 76 l0 0 ZM254 161 q0 -25 -12 -37 q-12 -12 -30 -12 q-18 0 -30 12 q-12 12 -12 37 l0 390 q0 25 12 37 q12 12 30 12 q18 0 30 -12 q12 -12 12 -37 l0 -390 Z" /><glyph glyph-name="1" unicode="1" d="M317 0 l0 712 l-134 0 l-109 -85 l0 -150 l109 78 l0 -555 l134 0 Z" /><glyph glyph-name="2" unicode="2" d="M388 0 l0 120 l-200 0 l161 275 q18 32 29 72 q10 40 10 78 q0 46 -15 80 q-14 33 -38 54 q-25 22 -55 32 q-31 9 -67 9 q-36 0 -70 -11 q-33 -12 -58 -35 q-24 -22 -36 -52 q-13 -30 -13 -76 l0 -38 l134 0 l0 43 q0 25 13 37 q12 12 30 12 q18 0 30 -13 q11 -12 11 -37 q0 -36 -8 -65 q-7 -30 -19 -50 l-183 -321 l0 -114 l344 0 Z" /><glyph glyph-name="3" unicode="3" d="M391 207 q1 30 -2 61 q-3 30 -17 58 q-7 14 -18 26 q-10 12 -24 22 q26 18 39 45 q12 26 15 53 q2 27 2 55 q0 47 -12 85 q-13 38 -39 64 q-21 21 -51 33 q-31 11 -71 11 q-36 0 -67 -11 q-32 -11 -56 -34 q-24 -22 -36 -53 q-13 -31 -13 -74 l0 -40 l134 0 l0 49 q0 22 11 32 q11 11 27 11 q11 0 18 -4 q7 -4 11 -10 q9 -14 10 -33 q1 -20 0 -36 q1 -17 -1 -39 q-1 -22 -11 -36 q-4 -5 -11 -9 q-7 -3 -17 -3 l-32 0 l0 -112 l32 0 q13 0 21 -5 q8 -4 13 -12 q9 -16 10 -40 q1 -25 1 -44 q0 -19 -1 -46 q-2 -27 -11 -42 q-4 -6 -12 -11 q-8 -6 -20 -6 q-18 0 -30 12 q-13 12 -13 37 l0 43 l-134 0 l0 -38 q0 -46 13 -76 q12 -30 36 -52 q25 -23 58 -35 q34 -11 70 -11 q36 0 70 11 q33 12 57 34 q37 37 45 79 q8 43 6 91 l0 0 Z" /><glyph glyph-name="4" unicode="4" d="M405 104 l0 120 l-49 0 l0 86 l-134 0 l0 -86 l-65 0 l175 488 l-129 0 l-184 -488 l0 -120 l203 0 l0 -104 l134 0 l0 104 l49 0 Z" /><glyph glyph-name="5" unicode="5" d="M391 247 q1 57 -5 109 q-6 51 -28 81 q-19 23 -43 34 q-25 11 -61 11 q-13 0 -26 -3 q-14 -4 -25 -10 q-11 -6 -21 -15 q-10 -9 -18 -19 l0 157 l219 0 l0 120 l-341 0 l0 -404 l128 0 l0 5 q0 25 12 37 q12 12 30 12 q24 0 36 -21 q8 -16 9 -46 q0 -31 0 -61 q1 -31 -1 -68 q-1 -37 -11 -54 q-7 -9 -14 -12 q-8 -4 -19 -4 q-18 0 -30 12 q-12 12 -12 37 l0 49 l-134 0 l0 -28 q0 -46 13 -76 q12 -30 36 -52 q24 -23 58 -35 q33 -11 69 -11 q36 0 70 12 q33 11 57 34 q39 39 47 93 q7 53 5 116 l0 0 Z" /><glyph glyph-name="6" unicode="6" d="M390 219 q0 70 -9 109 q-9 39 -28 64 q-19 25 -45 38 q-27 12 -57 12 q-8 0 -17 -1 q-10 -2 -18 -6 l118 277 l-140 0 l-131 -338 q-12 -31 -20 -72 q-9 -41 -9 -83 q0 -55 8 -92 q8 -37 27 -68 q20 -32 56 -49 q36 -18 86 -18 q45 0 83 16 q38 15 62 51 q16 23 25 59 q9 37 9 101 l0 0 ZM256 221 q1 -18 -1 -46 q-1 -29 -11 -47 q-5 -8 -14 -12 q-8 -4 -18 -4 q-10 0 -18 4 q-9 4 -14 12 q-10 18 -11 47 q-2 28 -1 46 q-1 17 1 47 q1 30 11 48 q5 8 14 12 q8 4 18 4 q20 0 32 -16 q10 -18 11 -47 q2 -30 1 -48 l0 0 Z" /><glyph glyph-name="7" unicode="7" d="M394 600 l0 112 l-369 0 l0 -204 l129 0 l0 84 l106 0 l-184 -592 l132 0 l186 600 Z" /><glyph glyph-name="8" unicode="8" d="M390 204 q0 30 -3 59 q-4 29 -16 54 q-7 15 -18 27 q-11 13 -25 24 q13 10 22 22 q9 12 16 25 q12 25 16 52 q3 26 3 54 q1 46 -10 85 q-11 38 -41 69 q-24 23 -55 34 q-32 11 -68 11 q-36 0 -67 -11 q-31 -11 -54 -34 q-30 -31 -41 -69 q-11 -39 -10 -85 q0 -28 4 -54 q3 -27 15 -52 q7 -13 16 -25 q9 -12 22 -22 q-14 -11 -25 -24 q-11 -12 -18 -27 q-12 -25 -15 -54 q-4 -29 -4 -59 q-1 -50 8 -91 q9 -41 43 -75 q24 -23 58 -35 q33 -11 69 -11 q36 0 70 11 q33 12 57 35 q34 34 43 75 q9 41 8 91 l0 0 ZM256 211 q1 -16 -1 -42 q-1 -26 -11 -42 q-5 -7 -14 -11 q-8 -4 -18 -4 q-10 0 -18 4 q-9 4 -14 11 q-10 17 -11 42 q-2 26 -1 42 q-1 16 0 43 q1 26 12 43 q5 8 14 11 q8 4 18 4 q20 0 32 -15 q11 -17 12 -43 q1 -27 0 -43 l0 0 ZM251 514 q1 -15 0 -40 q-1 -26 -14 -41 q-9 -9 -25 -9 q-15 0 -25 9 q-13 15 -14 40 q-1 26 0 41 q-1 14 0 37 q1 23 11 37 q11 12 28 12 q17 0 28 -12 q10 -14 11 -37 q1 -23 0 -37 l0 0 Z" /><glyph glyph-name="9" unicode="9" d="M390 493 q0 55 -8 92 q-8 37 -27 68 q-20 32 -56 49 q-36 18 -86 18 q-45 0 -83 -15 q-38 -16 -62 -52 q-16 -23 -25 -59 q-9 -37 -9 -101 q0 -70 9 -109 q9 -39 28 -64 q19 -25 45 -38 q27 -12 57 -12 q8 0 18 1 q9 2 17 6 l-118 -277 l140 0 l131 338 q12 31 21 72 q8 41 8 83 l0 0 ZM256 491 q1 -17 -1 -47 q-1 -29 -11 -48 q-5 -8 -14 -12 q-8 -4 -18 -4 q-20 0 -32 16 q-10 18 -11 48 q-2 29 -1 47 q-1 18 1 47 q1 28 11 46 q5 8 14 12 q8 4 18 4 q10 0 18 -4 q9 -4 14 -12 q10 -18 11 -47 q2 -28 1 -46 l0 0 Z" /><glyph glyph-name="colon" unicode=":" d="M222 298 l0 150 l-150 0 l0 -150 l150 0 ZM222 0 l0 150 l-150 0 l0 -150 l150 0 Z" /><glyph glyph-name="semicolon" unicode=";" d="M218 -74 l0 224 l-142 0 l0 -329 l142 105 ZM222 298 l0 150 l-150 0 l0 -150 l150 0 Z" /><glyph glyph-name="less" unicode="&lt;" d="M390 44 l0 146 l-189 106 l189 106 l0 146 l-356 -208 l0 -88 l356 -208 Z" /><glyph glyph-name="equal" unicode="=" d="M430 332 l0 128 l-388 0 l0 -128 l388 0 ZM430 130 l0 128 l-388 0 l0 -128 l388 0 Z" /><glyph glyph-name="greater" unicode="&gt;" d="M390 252 l0 88 l-356 208 l0 -146 l189 -106 l-189 -106 l0 -146 l356 208 Z" /><glyph glyph-name="question" unicode="?" d="M427 511 q0 51 -11 89 q-12 39 -41 68 q-22 23 -56 36 q-34 14 -79 14 q-46 -1 -78 -15 q-33 -15 -55 -37 q-28 -27 -40 -68 q-12 -42 -12 -91 l134 0 q0 21 2 40 q3 20 14 34 q7 8 16 13 q9 4 20 4 q12 0 21 -4 q9 -5 16 -13 q11 -13 13 -30 q2 -18 2 -36 q0 -28 -5 -49 q-5 -21 -21 -40 l-59 -70 q-15 -17 -25 -40 q-10 -23 -10 -48 l0 -61 l134 0 l0 46 q0 17 6 32 q7 15 18 28 l59 70 q19 22 28 53 q9 31 9 75 l0 0 ZM315 0 l0 150 l-150 0 l0 -150 l150 0 Z" /><glyph glyph-name="at" unicode="@" d="M610 0 l0 536 q0 46 -13 77 q-14 31 -38 53 q-48 46 -129 46 l-208 0 q-81 0 -129 -46 q-24 -22 -37 -53 q-14 -31 -14 -77 l0 -389 q0 -57 16 -93 q16 -35 51 -69 l98 97 q-16 16 -24 31 q-7 16 -7 42 l0 357 q0 43 19 64 q20 21 60 21 l142 0 q40 0 60 -21 q19 -21 19 -64 l0 -58 q-15 17 -33 27 q-11 6 -25 10 q-13 3 -26 3 q-36 0 -61 -11 q-24 -11 -43 -34 q-16 -18 -23 -46 q-7 -27 -7 -76 l0 -168 q0 -49 7 -76 q7 -28 23 -46 q19 -23 43 -34 q25 -11 61 -11 q13 0 26 4 q14 3 25 9 q11 6 21 15 q10 9 18 19 l0 -39 l128 0 ZM476 161 q0 -25 -12 -37 q-12 -12 -30 -12 q-18 0 -30 12 q-12 12 -12 37 l0 164 q0 25 12 37 q12 12 30 12 q18 0 30 -12 q12 -12 12 -37 l0 -164 Z" /><glyph glyph-name="A" unicode="a" d="M512 0 l-183 712 l-140 0 l-183 -712 l148 0 l23 111 l164 0 l23 -111 l148 0 ZM314 239 l-110 0 l55 264 l55 -264 Z" /><glyph glyph-name="B" unicode="b" d="M457 219 q1 31 -5 66 q-6 35 -30 64 q-7 7 -14 13 q-8 7 -18 12 q10 5 18 11 q8 6 15 13 q22 23 28 52 q7 28 6 63 q0 51 -11 90 q-11 38 -36 63 q-23 23 -59 34 q-37 12 -90 12 l-206 0 l0 -712 l206 0 q53 0 89 12 q37 12 59 35 q27 28 38 71 q10 43 10 101 l0 0 ZM315 220 q1 -48 -15 -70 q-16 -22 -58 -22 l-45 0 l0 184 l45 0 q41 0 57 -22 q17 -22 16 -70 l0 0 ZM315 508 q1 -40 -16 -58 q-18 -18 -59 -18 l-43 0 l0 152 l43 0 q42 0 59 -18 q17 -18 16 -58 l0 0 Z" /><glyph glyph-name="C" unicode="c" d="M444 203 l-142 0 q-1 -15 -3 -29 q-2 -15 -8 -26 q-6 -13 -18 -20 q-12 -8 -31 -8 q-19 0 -30 8 q-11 8 -17 20 q-12 27 -16 84 q-3 58 -3 124 q0 66 3 124 q4 57 16 84 q6 12 17 20 q11 8 30 8 q19 0 31 -7 q11 -7 17 -20 q6 -11 8 -26 q2 -14 3 -29 l142 0 q-2 51 -19 92 q-16 40 -44 67 q-27 26 -60 38 q-34 13 -78 13 q-59 -1 -95 -21 q-36 -20 -60 -50 q-41 -54 -48 -136 q-7 -83 -5 -158 q-2 -75 5 -156 q7 -82 48 -136 q24 -30 60 -50 q36 -20 95 -21 q44 0 78 13 q33 13 60 38 q28 27 45 68 q17 41 19 92 l0 0 Z" /><glyph glyph-name="D" unicode="d" d="M465 356 q2 73 -5 154 q-7 80 -48 133 q-23 29 -60 48 q-37 20 -96 21 l-201 0 l0 -712 l201 0 q59 1 96 21 q37 19 60 48 q41 53 48 133 q7 81 5 154 l0 0 ZM323 357 q1 -61 -2 -116 q-3 -55 -15 -82 q-7 -14 -20 -22 q-13 -9 -33 -9 l-56 0 l0 456 l56 0 q20 0 33 -9 q13 -8 20 -22 q12 -26 15 -81 q3 -54 2 -115 l0 0 Z" /><glyph glyph-name="E" unicode="e" d="M383 0 l0 128 l-186 0 l0 167 l160 0 l0 128 l-160 0 l0 161 l186 0 l0 128 l-328 0 l0 -712 l328 0 Z" /><glyph glyph-name="F" unicode="f" d="M383 584 l0 128 l-328 0 l0 -712 l142 0 l0 295 l160 0 l0 128 l-160 0 l0 161 l186 0 Z" /><glyph glyph-name="G" unicode="g" d="M444 211 l0 181 l-201 0 l0 -115 l59 0 l0 -74 q1 -31 -12 -56 q-13 -25 -48 -27 q-19 0 -30 8 q-11 8 -17 20 q-12 27 -16 84 q-3 58 -3 124 q0 66 3 124 q4 57 16 84 q6 12 17 20 q11 8 30 8 q39 -2 50 -31 q11 -28 10 -53 l142 0 q-2 49 -17 90 q-16 40 -44 69 q-25 25 -61 39 q-35 14 -80 14 q-59 -1 -95 -21 q-36 -20 -60 -50 q-41 -54 -48 -136 q-7 -82 -5 -157 q-2 -75 5 -157 q7 -82 48 -136 q24 -30 60 -50 q36 -20 95 -21 q93 0 147 56 q54 56 55 163 l0 0 Z" /><glyph glyph-name="H" unicode="h" d="M457 0 l0 712 l-142 0 l0 -286 l-118 0 l0 286 l-142 0 l0 -712 l142 0 l0 298 l118 0 l0 -298 l142 0 Z" /><glyph glyph-name="I" unicode="i" d="M197 0 l0 712 l-142 0 l0 -712 l142 0 Z" /><glyph glyph-name="J" unicode="j" d="M371 205 l0 507 l-142 0 l0 -507 q-1 -41 -20 -63 q-20 -22 -53 -22 q-18 1 -34 9 q-16 9 -24 20 l-98 -96 q29 -29 68 -45 q40 -16 88 -16 q55 0 95 16 q40 16 68 46 q26 28 39 67 q13 39 13 84 l0 0 Z" /><glyph glyph-name="K" unicode="k" d="M497 0 l-165 416 l142 296 l-142 0 l-135 -306 l0 306 l-142 0 l0 -712 l142 0 l0 164 l46 96 l102 -260 l152 0 Z" /><glyph glyph-name="L" unicode="l" d="M383 0 l0 128 l-186 0 l0 584 l-142 0 l0 -712 l328 0 Z" /><glyph glyph-name="M" unicode="m" d="M566 0 l0 712 l-126 0 l-130 -349 l-130 349 l-125 0 l0 -712 l142 0 l0 370 l76 -243 l73 0 l78 244 l0 -371 l142 0 Z" /><glyph glyph-name="N" unicode="n" d="M469 0 l0 712 l-142 0 l0 -348 l-148 348 l-124 0 l0 -712 l142 0 l0 348 l151 -348 l121 0 Z" /><glyph glyph-name="O" unicode="o" d="M452 356 q2 75 -5 157 q-7 82 -48 136 q-24 30 -61 50 q-37 20 -96 21 q-59 -1 -95 -21 q-36 -20 -60 -50 q-41 -54 -48 -136 q-7 -82 -5 -157 q-2 -75 5 -157 q7 -82 48 -136 q24 -30 60 -50 q36 -20 95 -21 q59 1 96 21 q37 20 61 50 q41 54 48 136 q7 82 5 157 l0 0 ZM310 356 q0 -66 -3 -124 q-4 -57 -16 -84 q-6 -12 -18 -20 q-12 -8 -31 -8 q-19 0 -30 8 q-11 8 -17 20 q-12 27 -16 84 q-3 58 -3 124 q0 66 3 124 q4 57 16 84 q6 12 17 20 q11 8 30 8 q19 0 31 -8 q12 -8 18 -20 q12 -27 16 -84 q3 -58 3 -124 l0 0 Z" /><glyph glyph-name="P" unicode="p" d="M456 486 q2 105 -42 165 q-44 60 -158 61 l-201 0 l0 -712 l142 0 l0 257 l59 0 q114 1 158 62 q44 61 42 167 l0 0 ZM314 485 q2 -36 -8 -67 q-10 -31 -49 -33 l-60 0 l0 199 l60 0 q39 -2 49 -33 q10 -30 8 -66 l0 0 Z" /><glyph glyph-name="Q" unicode="q" d="M486 55 l-61 51 q21 55 25 122 q3 68 2 128 q2 75 -5 157 q-7 82 -48 136 q-24 30 -61 50 q-37 20 -96 21 q-59 -1 -95 -21 q-36 -20 -60 -50 q-41 -54 -48 -136 q-7 -82 -5 -157 q-2 -75 5 -157 q7 -82 48 -136 q24 -30 60 -50 q36 -20 95 -21 q40 0 70 10 q29 10 51 26 l59 -50 l64 77 ZM310 356 q0 -40 -1 -79 q-1 -38 -4 -70 l-15 13 l-64 -77 l26 -22 q-4 -1 -10 -1 q-19 0 -30 8 q-11 8 -17 20 q-12 27 -16 84 q-3 58 -3 124 q0 66 3 124 q4 57 16 84 q6 12 17 20 q11 8 30 8 q19 0 31 -8 q12 -8 18 -20 q12 -27 16 -84 q3 -58 3 -124 l0 0 Z" /><glyph glyph-name="R" unicode="r" d="M479 0 l-104 308 q50 33 66 81 q16 48 15 106 q2 103 -41 160 q-43 56 -157 57 l-203 0 l0 -712 l142 0 l0 277 l47 0 l87 -277 l148 0 ZM314 495 q2 -33 -8 -60 q-10 -28 -49 -30 l-60 0 l0 179 l60 0 q39 -2 49 -29 q10 -28 8 -60 l0 0 Z" /><glyph glyph-name="S" unicode="s" d="M434 203 q1 94 -24 138 q-26 44 -92 68 l-89 36 q-30 12 -40 27 q-10 15 -9 48 q0 18 3 30 q2 12 9 21 q6 8 16 14 q10 5 25 5 q16 0 25 -5 q10 -5 16 -13 q9 -12 11 -29 q1 -16 1 -35 l142 0 q0 54 -13 96 q-13 42 -42 69 q-23 22 -58 33 q-35 12 -82 12 q-40 0 -73 -12 q-33 -11 -58 -33 q-32 -28 -48 -68 q-16 -40 -16 -90 q0 -81 24 -120 q24 -39 78 -59 l90 -37 q37 -14 50 -33 q13 -19 12 -68 q0 -22 -3 -36 q-4 -15 -11 -24 q-7 -9 -18 -13 q-11 -5 -27 -5 q-16 0 -27 5 q-11 5 -17 12 q-9 11 -12 27 q-3 16 -3 38 l-142 0 q0 -54 10 -93 q11 -39 37 -65 q24 -24 63 -38 q38 -14 91 -14 q52 0 91 15 q40 14 64 38 q27 27 37 66 q10 38 9 92 l0 0 Z" /><glyph glyph-name="T" unicode="t" d="M402 584 l0 128 l-382 0 l0 -128 l120 0 l0 -584 l142 0 l0 584 l120 0 Z" /><glyph glyph-name="U" unicode="u" d="M452 191 l0 521 l-142 0 l0 -528 q-1 -34 -17 -49 q-17 -15 -42 -15 q-25 0 -41 15 q-17 15 -18 49 l0 528 l-142 0 l0 -521 q0 -43 14 -78 q13 -36 39 -62 q29 -29 66 -44 q37 -15 82 -15 q45 0 82 15 q37 15 66 44 q26 26 39 62 q14 35 14 78 l0 0 Z" /><glyph glyph-name="V" unicode="v" d="M471 712 l-156 0 l-78 -503 l-77 503 l-156 0 l159 -712 l148 0 l160 712 Z" /><glyph glyph-name="W" unicode="w" d="M782 712 l-156 0 l-67 -503 l-88 503 l-156 0 l-88 -503 l-67 503 l-156 0 l149 -712 l148 0 l92 504 l92 -504 l148 0 l149 712 Z" /><glyph glyph-name="X" unicode="x" d="M460 0 l-150 368 l139 344 l-156 0 l-60 -213 l-60 213 l-156 0 l135 -344 l-146 -368 l156 0 l71 227 l71 -227 l156 0 Z" /><glyph glyph-name="Y" unicode="y" d="M431 712 l-156 0 l-60 -258 l-60 258 l-156 0 l145 -444 l0 -268 l142 0 l0 268 l145 444 Z" /><glyph glyph-name="Z" unicode="z" d="M368 0 l0 128 l-188 0 l188 479 l0 105 l-326 0 l0 -128 l178 0 l-188 -479 l0 -105 l336 0 Z" /><glyph glyph-name="bracketleft" unicode="[" d="M279 -74 l0 120 l-97 0 l0 620 l97 0 l0 120 l-231 0 l0 -860 l231 0 Z" /><glyph glyph-name="backslash" unicode="\" d="M318 -74 l-185 860 l-124 0 l185 -860 l124 0 Z" /><glyph glyph-name="bracketright" unicode="]" d="M259 -74 l0 860 l-231 0 l0 -120 l97 0 l0 -620 l-97 0 l0 -120 l231 0 Z" /><glyph glyph-name="asciicircum" unicode="^" d="M440 432 l-146 284 l-116 0 l-146 -284 l129 0 l75 151 l75 -151 l129 0 Z" /><glyph glyph-name="underscore" unicode="_" d="M472 -164 l0 96 l-472 0 l0 -96 l472 0 Z" /><glyph glyph-name="quoteleft" unicode="&#x2018;" d="M198 570 l0 247 l-142 -105 l0 -142 l142 0 Z" /><glyph glyph-name="a" unicode="a" d="M381 0 l0 368 q0 46 -14 79 q-14 33 -37 55 q-24 24 -57 34 q-32 10 -67 10 q-36 0 -70 -14 q-34 -13 -55 -34 q-26 -27 -38 -57 q-11 -30 -11 -63 l134 0 q0 22 12 37 q5 6 12 10 q7 3 17 3 q19 0 29 -12 q11 -12 11 -35 l0 -62 l-41 0 q-52 0 -82 -10 q-31 -11 -50 -28 q-26 -22 -39 -52 q-13 -31 -13 -68 q0 -38 7 -68 q7 -30 24 -51 q21 -27 47 -38 q25 -12 62 -12 q20 0 34 4 q13 5 25 13 q10 7 19 16 q8 9 16 19 l0 -44 l125 0 ZM247 167 q-1 -29 -13 -43 q-13 -15 -32 -15 q-21 0 -33 14 q-13 15 -13 44 q0 11 4 25 q5 13 13 21 q10 9 23 11 q12 2 28 2 l23 0 l0 -59 Z" /><glyph glyph-name="b" unicode="b" d="M401 269 q1 80 -5 139 q-5 59 -32 94 q-19 24 -43 34 q-24 10 -57 10 q-13 0 -26 -3 q-14 -4 -25 -10 q-18 -10 -33 -27 l0 206 l-134 0 l0 -712 l128 0 l0 39 q5 -8 17 -18 q12 -10 22 -16 q11 -6 25 -9 q13 -4 26 -4 q33 0 57 10 q24 10 43 34 q27 35 32 94 q6 59 5 139 l0 0 ZM267 269 q0 -46 -1 -83 q-2 -36 -9 -53 q-6 -11 -15 -16 q-10 -5 -20 -5 q-8 0 -15 3 q-8 3 -14 8 q-6 6 -9 16 q-4 9 -4 22 l0 216 q0 13 4 22 q3 10 9 16 q6 5 14 8 q7 3 15 3 q10 0 20 -5 q9 -5 15 -16 q7 -17 9 -53 q1 -37 1 -83 l0 0 Z" /><glyph glyph-name="c" unicode="c" d="M385 166 l-133 0 q-1 -8 -2 -18 q-2 -9 -7 -18 q-4 -8 -13 -13 q-8 -5 -20 -5 q-10 0 -20 5 q-9 5 -15 16 q-7 17 -9 53 q-1 37 -1 83 q0 46 1 83 q2 36 9 53 q6 11 15 16 q10 5 20 5 q12 0 20 -5 q8 -4 12 -12 q5 -8 7 -18 q2 -10 3 -19 l133 0 q-2 36 -14 72 q-13 35 -39 61 q-26 24 -56 33 q-30 9 -66 8 q-43 1 -79 -12 q-36 -14 -63 -52 q-25 -40 -31 -99 q-7 -58 -6 -114 q-1 -56 6 -114 q6 -59 31 -99 q27 -38 63 -51 q36 -14 79 -13 q39 0 71 10 q31 10 53 32 q23 24 36 59 q13 35 15 73 l0 0 Z" /><glyph glyph-name="d" unicode="d" d="M386 0 l0 712 l-134 0 l0 -206 q-15 17 -33 27 q-11 6 -25 10 q-13 3 -26 3 q-33 0 -57 -10 q-24 -10 -43 -34 q-27 -35 -32 -94 q-6 -59 -5 -139 q-1 -80 5 -139 q5 -59 32 -94 q19 -24 43 -34 q24 -10 57 -10 q13 0 26 4 q14 3 25 9 q10 6 22 16 q12 10 17 18 l0 -39 l128 0 ZM252 161 q0 -13 -3 -22 q-4 -10 -10 -16 q-6 -5 -14 -8 q-7 -3 -15 -3 q-10 0 -20 5 q-9 5 -15 16 q-7 17 -9 53 q-1 37 -1 83 q0 46 1 83 q2 36 9 53 q6 11 15 16 q10 5 20 5 q8 0 15 -3 q8 -3 14 -8 q6 -6 10 -16 q3 -9 3 -22 l0 -216 Z" /><glyph glyph-name="e" unicode="e" d="M388 226 q2 68 -4 146 q-6 78 -49 128 q-28 28 -59 37 q-31 10 -66 9 q-34 1 -66 -9 q-31 -10 -60 -37 q-37 -40 -46 -104 q-9 -64 -7 -127 q-2 -63 7 -127 q9 -63 46 -103 q28 -27 57 -37 q29 -11 69 -10 q39 0 72 11 q32 10 55 35 q24 28 35 62 q11 34 13 66 l-133 0 q0 -7 -2 -17 q-2 -10 -5 -16 q-6 -10 -14 -15 q-8 -6 -21 -6 q-13 0 -21 6 q-9 6 -14 15 q-6 12 -8 39 q-2 26 -2 54 l223 0 ZM254 323 l-89 0 q0 28 2 51 q3 23 8 32 q6 8 14 14 q8 6 21 6 q13 0 21 -6 q8 -6 14 -14 q5 -9 7 -32 q2 -23 2 -51 l0 0 Z" /><glyph glyph-name="f" unicode="f" d="M270 416 l0 101 l-66 0 l0 21 q0 31 16 47 q16 15 50 15 l0 120 q-41 1 -75 -6 q-34 -7 -63 -27 q-29 -20 -45 -54 q-17 -34 -17 -86 l0 -30 l-50 0 l0 -101 l50 0 l0 -416 l134 0 l0 416 l66 0 Z" /><glyph glyph-name="g" unicode="g" d="M386 -7 l0 545 l-128 0 l0 -32 q-7 8 -16 15 q-8 7 -18 12 q-11 6 -25 10 q-13 3 -26 3 q-36 0 -58 -9 q-21 -10 -40 -33 q-26 -31 -35 -79 q-10 -49 -9 -128 q-1 -79 9 -128 q9 -49 35 -80 q19 -23 40 -32 q22 -9 58 -9 q15 0 27 2 q11 3 20 8 q8 5 16 12 q8 7 16 17 l0 -105 q0 -23 -10 -35 q-12 -14 -32 -14 q-11 0 -19 4 q-8 3 -13 10 q-10 15 -10 38 l-134 0 q0 -32 11 -63 q11 -32 38 -58 q24 -23 58 -35 q33 -11 69 -11 q36 0 70 12 q34 12 57 34 q22 22 35 54 q14 32 14 75 l0 0 ZM252 213 q0 -24 -11 -36 q-12 -13 -31 -13 q-12 0 -20 6 q-8 5 -15 15 q-8 14 -9 46 q-1 31 -1 64 q0 33 1 64 q1 32 9 46 q7 10 15 15 q8 6 20 6 q9 0 17 -3 q8 -3 13 -9 q12 -12 12 -37 l0 -164 Z" /><glyph glyph-name="h" unicode="h" d="M398 0 l0 379 q0 49 -7 76 q-7 28 -23 46 q-19 23 -43 34 q-25 11 -61 11 q-13 0 -26 -3 q-14 -4 -25 -10 q-18 -10 -33 -27 l0 206 l-134 0 l0 -712 l134 0 l0 377 q0 25 12 37 q12 12 30 12 q18 0 30 -12 q12 -12 12 -37 l0 -377 l134 0 Z" /><glyph glyph-name="i" unicode="i" d="M180 0 l0 517 l-134 0 l0 -517 l134 0 ZM184 576 l0 142 l-142 0 l0 -142 l142 0 Z" /><glyph glyph-name="j" unicode="j" d="M180 -1 l0 518 l-134 0 l0 -509 q0 -35 -16 -49 q-16 -14 -50 -13 l0 -120 q41 -1 75 6 q34 7 63 27 q29 20 45 54 q17 34 17 86 l0 0 ZM184 576 l0 142 l-142 0 l0 -142 l142 0 Z" /><glyph glyph-name="k" unicode="k" d="M438 0 l-139 320 l138 218 l-139 0 l-118 -202 l0 376 l-134 0 l0 -712 l134 0 l0 146 l33 52 l77 -198 l148 0 Z" /><glyph glyph-name="l" unicode="l" d="M244 0 l0 120 q-34 0 -50 15 q-16 16 -16 47 l0 530 l-134 0 l0 -539 q0 -52 17 -86 q16 -34 45 -54 q29 -20 63 -27 q34 -7 75 -6 l0 0 Z" /><glyph glyph-name="m" unicode="m" d="M616 0 l0 379 q0 49 -7 76 q-7 28 -23 46 q-19 23 -44 34 q-25 11 -64 11 q-10 0 -26 -3 q-15 -4 -27 -10 q-15 -8 -29 -19 q-14 -11 -25 -23 q-18 26 -46 40 q-27 15 -61 15 q-13 0 -26 -3 q-14 -4 -25 -10 q-11 -6 -21 -15 q-10 -9 -18 -19 l0 39 l-128 0 l0 -538 l134 0 l0 377 q0 25 12 37 q12 12 30 12 q18 0 30 -12 q12 -12 12 -37 l0 -377 l134 0 l0 377 q0 25 12 37 q12 12 30 12 q18 0 30 -12 q12 -12 12 -37 l0 -377 l134 0 Z" /><glyph glyph-name="n" unicode="n" d="M398 0 l0 379 q0 49 -7 76 q-7 28 -23 46 q-19 23 -43 34 q-25 11 -61 11 q-13 0 -26 -3 q-14 -4 -25 -10 q-11 -6 -21 -15 q-10 -9 -18 -19 l0 39 l-128 0 l0 -538 l134 0 l0 377 q0 25 12 37 q12 12 30 12 q18 0 30 -12 q12 -12 12 -37 l0 -377 l134 0 Z" /><glyph glyph-name="o" unicode="o" d="M389 269 q1 56 -6 114 q-6 59 -31 99 q-26 38 -63 52 q-36 13 -79 12 q-43 1 -79 -12 q-36 -14 -63 -52 q-25 -40 -31 -99 q-7 -58 -6 -114 q-1 -56 6 -114 q6 -59 31 -99 q27 -38 63 -51 q36 -14 79 -13 q43 -1 79 13 q37 13 63 51 q25 40 31 99 q7 58 6 114 l0 0 ZM255 269 q0 -46 -1 -83 q-2 -36 -9 -53 q-6 -11 -15 -16 q-10 -5 -20 -5 q-10 0 -20 5 q-9 5 -15 16 q-7 17 -9 53 q-1 37 -1 83 q0 46 1 83 q2 36 9 53 q6 11 15 16 q10 5 20 5 q10 0 20 -5 q9 -5 15 -16 q7 -17 9 -53 q1 -37 1 -83 l0 0 Z" /><glyph glyph-name="p" unicode="p" d="M401 269 q1 80 -5 139 q-5 59 -32 94 q-19 24 -43 34 q-24 10 -57 10 q-13 0 -26 -3 q-14 -4 -25 -10 q-10 -6 -22 -16 q-12 -10 -17 -18 l0 39 l-128 0 l0 -712 l134 0 l0 206 q15 -16 33 -27 q11 -6 25 -9 q13 -4 26 -4 q33 0 57 10 q24 10 43 34 q27 35 32 94 q6 59 5 139 l0 0 ZM267 269 q0 -46 -1 -83 q-2 -36 -9 -53 q-6 -11 -15 -16 q-10 -5 -20 -5 q-8 0 -15 3 q-8 3 -14 8 q-6 6 -9 16 q-4 9 -4 22 l0 216 q0 13 4 22 q3 10 9 16 q6 5 14 8 q7 3 15 3 q10 0 20 -5 q9 -5 15 -16 q7 -17 9 -53 q1 -37 1 -83 l0 0 Z" /><glyph glyph-name="q" unicode="q" d="M386 -174 l0 712 l-128 0 l0 -39 q-5 8 -17 18 q-12 10 -22 16 q-11 6 -25 10 q-13 3 -26 3 q-33 0 -57 -10 q-24 -10 -43 -34 q-27 -35 -32 -94 q-6 -59 -5 -139 q-1 -80 5 -139 q5 -59 32 -94 q19 -24 43 -34 q24 -10 57 -10 q13 0 26 4 q14 3 25 9 q18 11 33 27 l0 -206 l134 0 ZM252 161 q0 -13 -3 -22 q-4 -10 -10 -16 q-6 -5 -14 -8 q-7 -3 -15 -3 q-10 0 -20 5 q-9 5 -15 16 q-7 17 -9 53 q-1 37 -1 83 q0 46 1 83 q2 36 9 53 q6 11 15 16 q10 5 20 5 q8 0 15 -3 q8 -3 14 -8 q6 -6 10 -16 q3 -9 3 -22 l0 -216 Z" /><glyph glyph-name="r" unicode="r" d="M312 414 l0 132 q-22 0 -42 -5 q-20 -5 -37 -13 q-18 -9 -33 -21 q-15 -13 -26 -27 l0 58 l-128 0 l0 -538 l134 0 l0 328 q1 41 25 63 q23 23 58 23 l49 0 Z" /><glyph glyph-name="s" unicode="s" d="M380 165 q0 30 -7 52 q-6 22 -17 36 q-13 19 -33 33 q-20 14 -48 24 l-74 28 q-24 9 -34 24 q-4 5 -5 11 q-2 6 -2 13 q0 20 11 30 q5 5 13 9 q8 3 18 3 q8 0 16 -3 q8 -4 14 -10 q5 -6 8 -15 q3 -8 3 -19 l131 0 q0 41 -14 71 q-14 29 -36 50 q-23 21 -55 33 q-31 11 -67 11 q-36 0 -69 -12 q-34 -12 -58 -37 q-23 -23 -36 -52 q-13 -29 -13 -72 q0 -23 5 -42 q4 -18 13 -33 q13 -20 34 -35 q20 -16 49 -27 l75 -29 q11 -4 20 -10 q9 -6 15 -13 q5 -7 7 -15 q2 -7 2 -15 q0 -9 -3 -17 q-3 -8 -8 -13 q-7 -7 -14 -9 q-8 -2 -18 -2 q-9 0 -18 4 q-9 3 -15 10 q-12 12 -14 35 l-132 0 q1 -40 14 -69 q14 -30 37 -54 q23 -23 57 -35 q34 -12 71 -12 q36 0 68 9 q32 10 58 36 q22 22 36 53 q14 31 15 75 l0 0 Z" /><glyph glyph-name="t" unicode="t" d="M270 0 l0 120 q-34 0 -50 15 q-16 16 -16 47 l0 234 l66 0 l0 101 l-66 0 l0 147 l-134 0 l0 -147 l-50 0 l0 -101 l50 0 l0 -243 q0 -52 17 -86 q16 -34 45 -54 q29 -20 63 -27 q34 -7 75 -6 l0 0 Z" /><glyph glyph-name="u" unicode="u" d="M396 0 l0 538 l-134 0 l0 -377 q0 -25 -12 -37 q-12 -12 -30 -12 q-18 0 -30 12 q-12 12 -12 37 l0 377 l-134 0 l0 -379 q0 -49 7 -76 q7 -28 23 -46 q19 -23 43 -34 q25 -11 61 -11 q13 0 26 4 q14 3 25 9 q11 6 21 15 q10 9 18 19 l0 -39 l128 0 Z" /><glyph glyph-name="v" unicode="v" d="M420 538 l-148 0 l-60 -325 l-60 325 l-148 0 l137 -538 l142 0 l137 538 Z" /><glyph glyph-name="w" unicode="w" d="M631 538 l-149 0 l-50 -325 l-60 325 l-110 0 l-60 -325 l-50 325 l-148 0 l127 -538 l130 0 l56 301 l55 -301 l130 0 l129 538 Z" /><glyph glyph-name="x" unicode="x" d="M426 0 l-133 273 l127 265 l-149 0 l-56 -137 l-56 137 l-148 0 l124 -265 l-131 -273 l149 0 l62 139 l62 -139 l149 0 Z" /><glyph glyph-name="y" unicode="y" d="M420 538 l-148 0 l-60 -325 l-60 325 l-148 0 l137 -538 l-2 -7 q-12 -38 -37 -44 q-26 -6 -57 -5 l0 -118 q81 -4 141 17 q60 21 84 108 l150 587 Z" /><glyph glyph-name="z" unicode="z" d="M324 0 l0 120 l-144 0 l144 318 l0 100 l-283 0 l0 -120 l131 0 l-144 -318 l0 -100 l296 0 Z" /><glyph glyph-name="braceleft" unicode="{" d="M334 -74 l0 120 l-51 0 q-16 1 -25 11 q-10 11 -10 25 l0 174 q0 28 -8 46 q-7 18 -18 29 q-13 12 -26 18 q-13 5 -21 7 q8 2 21 7 q13 6 26 18 q11 11 18 29 q8 18 8 46 l0 174 q0 14 10 25 q9 10 25 11 l51 0 l0 120 l-81 0 q-28 0 -54 -9 q-26 -10 -46 -29 q-18 -17 -28 -44 q-11 -26 -11 -63 l0 -189 q0 -14 -10 -25 q-9 -10 -25 -11 l-51 0 l0 -120 l51 0 q16 -1 25 -11 q10 -11 10 -25 l0 -189 q0 -37 11 -63 q10 -27 28 -44 q20 -19 46 -29 q26 -9 54 -9 l81 0 Z" /><glyph glyph-name="bar" unicode="|" d="M254 -74 l0 860 l-134 0 l0 -860 l134 0 Z" /><glyph glyph-name="braceright" unicode="}" d="M334 296 l0 120 l-51 0 q-16 1 -25 11 q-10 11 -10 25 l0 189 q0 37 -11 63 q-10 27 -28 44 q-20 19 -46 29 q-26 9 -54 9 l-81 0 l0 -120 l51 0 q16 -1 25 -11 q10 -11 10 -25 l0 -174 q0 -28 8 -46 q7 -18 18 -29 q13 -12 26 -18 q13 -5 21 -7 q-8 -2 -21 -7 q-13 -6 -26 -18 q-11 -11 -18 -29 q-8 -18 -8 -46 l0 -174 q0 -14 -10 -25 q-9 -10 -25 -11 l-51 0 l0 -120 l81 0 q28 0 54 9 q26 10 46 29 q18 17 28 44 q11 26 11 63 l0 189 q0 14 10 25 q9 10 25 11 l51 0 Z" /><glyph glyph-name="asciitilde" unicode="~" d="M462 289 l-82 81 q-15 -15 -30 -23 q-16 -9 -37 -9 q-21 0 -37 6 q-17 5 -32 14 q-20 12 -42 19 q-22 7 -51 7 q-37 0 -70 -18 q-34 -18 -71 -55 l82 -81 q15 15 31 24 q15 8 36 8 q21 0 37 -5 q17 -6 32 -15 q20 -12 42 -19 q22 -7 51 -7 q37 0 71 18 q33 18 70 55 l0 0 Z" /><glyph glyph-name="exclamdown" unicode="¡" d="M194 -174 l0 505 l-134 0 l0 -505 l134 0 ZM202 388 l0 150 l-150 0 l0 -150 l150 0 Z" /><glyph glyph-name="cent" unicode="¢" d="M392 268 l-133 0 q-1 -8 -2 -17 q-2 -9 -7 -17 q-4 -8 -13 -12 q-8 -5 -20 -5 q-10 0 -20 5 q-9 5 -15 15 q-7 16 -9 51 q-1 34 -1 78 q0 44 1 78 q2 35 9 51 q6 10 15 15 q10 5 20 5 q12 0 20 -5 q8 -4 12 -11 q5 -8 7 -17 q2 -10 3 -18 l133 0 q-2 35 -14 68 q-13 34 -39 58 q-16 14 -33 23 q-18 8 -37 12 l0 87 l-102 0 l0 -87 q-27 -5 -50 -18 q-24 -14 -42 -39 q-25 -38 -31 -93 q-7 -56 -6 -109 q-1 -53 6 -109 q6 -55 31 -93 q18 -25 42 -39 q23 -13 50 -18 l0 -107 l102 0 l0 108 q44 9 72 35 q23 22 36 56 q13 33 15 69 l0 0 Z" /><glyph glyph-name="sterling" unicode="£" d="M463 0 l0 128 l-229 0 l0 181 l74 0 l0 101 l-74 0 l0 97 q1 41 22 63 q21 22 51 22 q28 -1 41 -11 q13 -10 19 -18 l96 96 q-29 29 -68 45 q-40 16 -88 16 q-95 -1 -154 -59 q-59 -58 -61 -154 l0 -97 l-62 0 l0 -101 l62 0 l0 -309 l371 0 Z" /><glyph glyph-name="fraction" unicode="&#x2044;" d="M245 712 l-102 0 l-245 -712 l102 0 l245 712 Z" /><glyph glyph-name="yen" unicode="¥" d="M419 712 l-147 0 l-57 -258 l-57 258 l-147 0 l93 -303 l-63 0 l0 -101 l95 0 l12 -40 l0 -40 l-107 0 l0 -101 l107 0 l0 -127 l134 0 l0 127 l107 0 l0 101 l-107 0 l0 40 l12 40 l95 0 l0 101 l-63 0 l93 303 Z" /><glyph glyph-name="florin" unicode="&#x192;" d="M356 602 l0 120 l-60 0 q-55 1 -102 -33 q-47 -34 -63 -111 l-32 -186 l-67 0 l0 -101 l49 0 l-81 -465 l132 0 l82 465 l88 0 l0 101 l-70 0 l31 176 q3 14 13 24 q11 10 27 10 l53 0 Z" /><glyph glyph-name="section" unicode="§" d="M415 269 q1 67 -9 102 q-10 35 -38 63 q-13 12 -31 23 q-19 11 -37 17 l-76 28 q-24 9 -35 24 q-7 11 -7 26 q0 20 12 30 q6 5 14 9 q7 3 17 3 q9 0 17 -3 q8 -4 14 -10 q12 -12 12 -34 l134 0 q-1 42 -16 75 q-16 32 -44 53 q-23 18 -53 28 q-30 9 -64 9 q-37 0 -72 -12 q-34 -12 -59 -37 q-23 -23 -37 -53 q-13 -31 -13 -71 q0 -25 5 -43 q4 -19 14 -34 q15 -24 41 -41 q-4 -2 -7 -5 q-3 -3 -6 -5 q-36 -29 -46 -63 q-9 -34 -8 -79 q-2 -51 7 -92 q8 -42 46 -80 q12 -11 27 -20 q14 -9 30 -15 l77 -29 q11 -4 21 -10 q10 -6 16 -14 q5 -6 7 -12 q2 -7 2 -15 q0 -10 -3 -18 q-4 -7 -9 -12 q-6 -6 -14 -8 q-9 -3 -21 -3 q-9 0 -18 4 q-8 3 -15 10 q-6 6 -9 15 q-4 9 -4 20 l-136 0 q1 -40 15 -69 q14 -29 38 -53 q24 -23 57 -36 q34 -12 72 -12 q38 0 73 11 q34 10 59 34 q25 24 39 55 q14 30 14 74 q0 20 -5 40 q-4 19 -14 36 q-13 26 -39 42 q3 2 6 4 q2 2 5 4 q37 30 46 66 q9 36 8 83 l0 0 ZM281 269 q1 -21 -2 -47 q-3 -25 -20 -40 q-13 -11 -33 -11 q-19 0 -33 11 q-17 15 -20 41 q-3 27 -2 46 q-1 21 2 47 q3 25 20 40 q14 11 33 11 q20 0 33 -11 q17 -15 20 -40 q3 -26 2 -47 l0 0 Z" /><glyph glyph-name="currency" unicode="¤" d="M492 203 l-142 0 q0 -31 -12 -56 q-12 -26 -48 -27 q-19 0 -31 8 q-12 8 -18 20 q-7 14 -9 32 q-3 19 -4 40 l92 0 l0 101 l-96 0 l0 70 l96 0 l0 101 l-92 0 q1 21 3 40 q2 18 9 32 q6 12 18 20 q13 8 32 8 q36 -1 48 -26 q11 -25 11 -56 l142 0 q-2 51 -19 92 q-16 40 -44 67 q-27 26 -60 38 q-34 13 -78 13 q-59 -1 -95 -21 q-36 -20 -60 -50 q-24 -30 -36 -72 q-13 -43 -14 -85 l-55 0 l0 -101 l52 0 l0 -70 l-52 0 l0 -101 l55 0 q1 -42 14 -85 q12 -42 36 -72 q24 -30 60 -50 q36 -20 95 -21 q44 0 78 13 q33 13 60 38 q28 27 45 68 q17 41 19 92 l0 0 Z" /><glyph glyph-name="quotesingle" unicode="&#39;" d="M201 501 l0 211 l-123 0 l0 -211 l123 0 Z" /><glyph glyph-name="quotedblleft" unicode="&#x201c;" d="M412 570 l0 247 l-142 -105 l0 -142 l142 0 ZM198 570 l0 247 l-142 -105 l0 -142 l142 0 Z" /><glyph glyph-name="guillemotleft" unicode="«" d="M196 9 l0 193 l-52 78 l52 77 l0 193 l-174 -270 l174 -271 ZM396 9 l0 193 l-54 78 l54 77 l0 193 l-174 -270 l174 -271 Z" /><glyph glyph-name="guilsinglleft" unicode="&#x2039;" d="M196 9 l0 193 l-52 78 l52 77 l0 193 l-174 -270 l174 -271 Z" /><glyph glyph-name="guilsinglright" unicode="­&#x203a;" d="M216 280 l-174 270 l0 -193 l52 -77 l-52 -78 l0 -193 l174 271 Z" /><glyph glyph-name="fi" unicode="&#xfb01;" d="M270 416 l0 101 l-66 0 l0 24 q0 35 16 49 q16 14 50 13 l0 120 q-41 1 -75 -6 q-34 -7 -63 -27 q-29 -20 -45 -54 q-17 -34 -17 -86 l0 -33 l-50 0 l0 -101 l50 0 l0 -416 l134 0 l0 416 l66 0 ZM453 0 l0 517 l-134 0 l0 -517 l134 0 ZM457 576 l0 142 l-142 0 l0 -142 l142 0 Z" /><glyph glyph-name="fl" unicode="&#xfb02;" d="M270 416 l0 101 l-66 0 l0 24 q0 31 16 47 q16 15 50 15 l0 120 q-41 1 -75 -6 q-34 -7 -63 -27 q-29 -20 -45 -54 q-17 -34 -17 -86 l0 -33 l-50 0 l0 -101 l50 0 l0 -416 l134 0 l0 416 l66 0 ZM519 0 l0 120 q-34 0 -50 15 q-16 16 -16 47 l0 530 l-134 0 l0 -539 q0 -52 17 -86 q16 -34 45 -54 q29 -20 63 -27 q34 -7 75 -6 l0 0 Z" /><glyph glyph-name="endash" unicode="&#x2013;" d="M430 231 l0 128 l-388 0 l0 -128 l388 0 Z" /><glyph glyph-name="dagger" unicode="&#x2020;" d="M414 427 l0 111 l-124 0 l0 174 l-124 0 l0 -174 l-124 0 l0 -111 l124 0 l0 -427 l124 0 l0 427 l124 0 Z" /><glyph glyph-name="daggerdbl" unicode="&#x2021;" d="M414 0 l0 111 l-124 0 l0 316 l124 0 l0 111 l-124 0 l0 174 l-124 0 l0 -174 l-124 0 l0 -111 l124 0 l0 -316 l-124 0 l0 -111 l124 0 l0 -174 l124 0 l0 174 l124 0 Z" /><glyph glyph-name="periodcentered" unicode="·" d="M230 208 l0 180 l-180 0 l0 -180 l180 0 Z" /><glyph glyph-name="paragraph" unicode="¶" d="M590 -174 l0 886 l-408 0 q-72 1 -112 -51 q-39 -51 -40 -168 q1 -117 40 -168 q40 -52 112 -51 l50 0 l0 -448 l134 0 l0 758 l90 0 l0 -758 l134 0 Z" /><glyph glyph-name="bullet" unicode="&#x2022;" d="M381 334 q-2 69 -48 115 q-46 46 -115 48 q-69 -2 -115 -48 q-46 -46 -48 -115 q2 -69 48 -115 q46 -46 115 -48 q69 2 115 48 q46 46 48 115 l0 0 Z" /><glyph glyph-name="quotesinglbase" unicode="&#x201a;" d="M198 0 l0 142 l-142 0 l0 -247 l142 105 Z" /><glyph glyph-name="quotedblbase" unicode="&#x201e;" d="M412 0 l0 142 l-142 0 l0 -247 l142 105 ZM198 0 l0 142 l-142 0 l0 -247 l142 105 Z" /><glyph glyph-name="quotedblright" unicode="&#x201d;" d="M412 570 l0 142 l-142 0 l0 -247 l142 105 ZM198 570 l0 142 l-142 0 l0 -247 l142 105 Z" /><glyph glyph-name="guillemotright" unicode="»" d="M416 280 l-174 270 l0 -193 l52 -77 l-52 -78 l0 -193 l174 271 ZM216 280 l-174 270 l0 -193 l54 -77 l-54 -78 l0 -193 l174 271 Z" /><glyph glyph-name="ellipsis" unicode="&#x2026;" d="M662 0 l0 150 l-150 0 l0 -150 l150 0 ZM202 0 l0 150 l-150 0 l0 -150 l150 0 ZM432 0 l0 150 l-150 0 l0 -150 l150 0 Z" /><glyph glyph-name="perthousand" unicode="&#x2030;" d="M328 479 l0 109 q-2 67 -43 100 q-42 32 -100 32 q-58 0 -100 -32 q-41 -33 -43 -100 l0 -109 q2 -67 43 -100 q42 -32 100 -32 q58 0 100 32 q41 33 43 100 l0 0 ZM754 124 l0 109 q-2 67 -43 100 q-42 32 -100 32 q-58 0 -100 -32 q-41 -33 -43 -100 l0 -109 q2 -67 43 -100 q42 -32 100 -32 q58 0 100 32 q41 33 43 100 l0 0 ZM1098 124 l0 109 q-2 67 -43 100 q-42 32 -100 32 q-58 0 -100 -32 q-41 -33 -43 -100 l0 -109 q2 -67 43 -100 q42 -32 100 -32 q58 0 100 32 q41 33 43 100 l0 0 ZM574 712 l-102 0 l-248 -712 l102 0 l248 712 ZM220 482 q0 -21 -10 -30 q-10 -9 -25 -9 q-15 0 -25 9 q-10 9 -10 30 l0 103 q0 21 10 30 q10 9 25 9 q15 0 25 -9 q10 -9 10 -30 l0 -103 ZM646 127 q0 -21 -10 -30 q-10 -9 -25 -9 q-15 0 -25 9 q-10 9 -10 30 l0 103 q0 21 10 30 q10 9 25 9 q15 0 25 -9 q10 -9 10 -30 l0 -103 ZM990 127 q0 -21 -10 -30 q-10 -9 -25 -9 q-15 0 -25 9 q-10 9 -10 30 l0 103 q0 21 10 30 q10 9 25 9 q15 0 25 -9 q10 -9 10 -30 l0 -103 Z" /><glyph glyph-name="questiondown" unicode="¿" d="M400 31 l-134 0 q1 -21 -2 -40 q-2 -20 -14 -34 q-7 -8 -16 -13 q-9 -4 -20 -4 q-12 0 -21 4 q-9 5 -16 13 q-11 13 -13 30 q-2 18 -2 36 q0 28 5 49 q5 21 21 40 l59 70 q15 18 25 40 q10 23 10 48 l0 61 l-134 0 l0 -46 q0 -16 -6 -31 q-7 -15 -18 -29 l-59 -70 q-19 -21 -28 -53 q-9 -31 -9 -75 q0 -51 11 -89 q12 -39 41 -68 q23 -23 56 -36 q34 -14 79 -14 q46 1 79 16 q32 14 54 36 q28 27 40 68 q12 42 12 91 l0 0 ZM290 388 l0 150 l-150 0 l0 -150 l150 0 Z" /><glyph glyph-name="grave" unicode="`" d="M268 587 l-76 145 l-107 0 l95 -145 l88 0 Z" /><glyph glyph-name="acute" unicode="´" d="M339 732 l-107 0 l-76 -145 l88 0 l95 145 Z" /><glyph glyph-name="circumflex" unicode="&#x2c6;" d="M369 587 l-106 145 l-102 0 l-106 -145 l98 0 l59 77 l59 -77 l98 0 Z" /><glyph glyph-name="tilde" unicode="&#x2dc;" d="M374 645 l-57 56 q-15 -14 -25 -18 q-11 -4 -22 -4 q-12 0 -23 4 q-11 3 -22 10 q-18 10 -33 14 q-15 4 -33 4 q-28 0 -51 -13 q-22 -13 -48 -39 l55 -56 q15 15 26 19 q11 4 22 3 q12 0 23 -4 q11 -3 22 -10 q18 -10 33 -14 q15 -3 33 -3 q28 0 51 12 q23 13 49 39 l0 0 Z" /><glyph glyph-name="macron" unicode="¯" d="M344 609 l0 85 l-264 0 l0 -85 l264 0 Z" /><glyph glyph-name="breve" unicode="&#x2d8;" d="M345 695 l-86 0 q-2 -22 -17 -30 q-14 -8 -30 -8 q-16 0 -30 8 q-15 8 -17 30 l-86 0 q4 -71 44 -99 q40 -29 89 -28 q49 -1 89 28 q40 28 44 99 l0 0 Z" /><glyph glyph-name="dotaccent" unicode="&#x2d9;" d="M272 592 l0 120 l-120 0 l0 -120 l120 0 Z" /><glyph glyph-name="dieresis" unicode="¨" d="M370 592 l0 120 l-120 0 l0 -120 l120 0 ZM174 592 l0 120 l-120 0 l0 -120 l120 0 Z" /><glyph glyph-name="ring" unicode="&#x2da;" d="M324 701 q-1 48 -33 80 q-31 31 -79 32 q-48 -1 -79 -33 q-32 -31 -33 -79 q1 -48 33 -79 q31 -32 79 -33 q48 1 79 33 q32 31 33 79 l0 0 ZM254 701 q0 -18 -12 -30 q-12 -12 -30 -12 q-18 0 -30 12 q-12 12 -12 30 q0 18 12 30 q12 12 30 12 q18 0 30 -12 q12 -12 12 -30 l0 0 Z" /><glyph glyph-name="cedilla" unicode="¸" d="M262 -41 l-80 0 l-66 -166 l89 0 l57 166 Z" /><glyph glyph-name="hungarumlaut" unicode="&#x2dd;" d="M216 733 l-107 0 l-40 -146 l81 0 l66 146 ZM405 733 l-107 0 l-39 -146 l80 0 l66 146 Z" /><glyph glyph-name="ogonek" unicode="&#x2db;" d="M309 -207 l-66 166 l-80 0 l57 -166 l89 0 Z" /><glyph glyph-name="caron" unicode="&#x2c7;" d="M369 732 l-98 0 l-59 -77 l-59 77 l-98 0 l106 -145 l102 0 l106 145 Z" /><glyph glyph-name="emdash" unicode="&#x2014;" d="M692 231 l0 128 l-650 0 l0 -128 l650 0 Z" /><glyph glyph-name="AE" unicode="æ" d="M683 0 l0 128 l-186 0 l0 167 l160 0 l0 128 l-160 0 l0 161 l186 0 l0 128 l-418 0 l-259 -712 l157 0 l40 121 l152 0 l0 -121 l328 0 ZM355 249 l-110 0 l110 335 l0 -335 Z" /><glyph glyph-name="ordfeminine" unicode="ª" d="M314 280 l0 294 q0 37 -12 63 q-11 26 -30 44 q-20 19 -46 28 q-27 8 -55 8 q-30 0 -58 -11 q-28 -11 -45 -28 q-22 -21 -31 -45 q-9 -25 -9 -52 l111 0 q0 4 1 13 q0 8 6 15 q4 5 10 8 q7 4 15 4 q15 0 24 -9 q8 -10 8 -28 l0 -48 l-32 0 q-42 0 -68 -8 q-25 -8 -41 -22 q-21 -18 -31 -43 q-11 -25 -11 -54 q0 -31 5 -55 q6 -23 20 -40 q18 -21 39 -29 q21 -8 51 -8 q12 0 24 3 q12 2 21 7 q6 4 14 10 q8 6 16 16 l0 -33 l104 0 ZM203 414 q0 -22 -11 -34 q-10 -11 -25 -11 q-17 0 -26 11 q-10 12 -10 34 q0 9 4 19 q3 11 9 17 q9 7 20 9 q11 1 21 1 l18 0 l0 -46 Z" /><glyph glyph-name="Lslash" unicode="&#x141;" d="M402 0 l0 128 l-186 0 l0 218 l93 72 l0 128 l-93 -72 l0 238 l-142 0 l0 -348 l-45 -35 l0 -128 l45 35 l0 -236 l328 0 Z" /><glyph glyph-name="Oslash" unicode="ø" d="M452 356 q2 74 -5 156 q-7 81 -46 135 l42 109 l-88 0 l-21 -55 q-19 9 -41 14 q-23 5 -51 5 q-59 -1 -95 -21 q-36 -20 -60 -50 q-41 -54 -48 -136 q-7 -82 -5 -157 q-2 -74 5 -156 q7 -81 46 -135 l-42 -109 l88 0 l21 54 q18 -8 40 -13 q22 -5 50 -5 q59 1 96 21 q37 20 61 50 q41 54 48 136 q7 82 5 157 l0 0 ZM286 573 l-109 -288 q-1 35 -1 71 q0 66 3 124 q4 57 16 84 q6 12 17 20 q11 8 30 8 q16 0 27 -5 q10 -6 17 -14 l0 0 ZM310 356 q0 -66 -3 -124 q-4 -57 -16 -84 q-6 -12 -18 -20 q-12 -8 -31 -8 q-16 0 -25 5 q-10 6 -17 14 l109 288 q1 -35 1 -71 l0 0 Z" /><glyph glyph-name="OE" unicode="&#x152;" d="M632 0 l0 128 l-186 0 l0 167 l160 0 l0 128 l-160 0 l0 161 l186 0 l0 128 l-312 0 l0 -20 q-14 11 -37 19 q-24 9 -48 9 q-52 -1 -88 -20 q-36 -20 -60 -51 q-35 -51 -45 -134 q-9 -84 -8 -159 q-1 -75 9 -158 q10 -84 44 -135 q22 -31 59 -51 q37 -19 89 -20 q24 0 46 8 q23 8 39 20 l0 -20 l312 0 ZM310 356 q0 -66 -3 -124 q-4 -57 -16 -84 q-6 -12 -18 -20 q-12 -8 -31 -8 q-19 0 -30 8 q-11 8 -17 20 q-12 27 -16 84 q-3 58 -3 124 q0 66 3 124 q4 57 16 84 q6 12 17 20 q11 8 30 8 q19 0 31 -8 q12 -8 18 -20 q12 -27 16 -84 q3 -58 3 -124 l0 0 Z" /><glyph glyph-name="ordmasculine" unicode="º" d="M321 495 q1 45 -5 92 q-6 47 -26 78 q-21 31 -51 42 q-30 11 -65 10 q-35 1 -65 -10 q-30 -11 -52 -42 q-20 -31 -25 -78 q-6 -47 -5 -92 q-1 -44 5 -91 q5 -47 25 -79 q22 -31 52 -41 q30 -11 65 -10 q35 -1 65 10 q30 10 51 41 q20 32 26 79 q6 47 5 91 l0 0 ZM210 495 q0 -20 -1 -55 q-1 -35 -8 -53 q-4 -8 -12 -12 q-7 -4 -15 -4 q-8 0 -16 4 q-7 4 -12 12 q-6 18 -7 53 q-1 35 -1 55 q0 21 1 56 q1 34 7 52 q5 9 12 13 q8 3 16 3 q8 0 15 -3 q7 -4 12 -13 q6 -18 8 -53 q1 -35 1 -55 l0 0 Z" /><glyph glyph-name="ae" unicode="æ" d="M604 226 q2 68 -4 146 q-6 78 -49 128 q-28 28 -59 37 q-31 10 -66 9 q-24 0 -49 -6 q-24 -7 -45 -20 q-5 -4 -9 -7 q-4 -4 -8 -8 q-9 11 -20 18 q-19 12 -42 18 q-23 5 -47 5 q-36 0 -70 -14 q-34 -13 -55 -34 q-26 -27 -38 -57 q-11 -30 -11 -63 l134 0 q0 10 2 19 q3 9 8 16 q4 7 12 11 q8 4 19 4 q17 0 28 -12 q12 -11 12 -34 l0 -63 l-41 0 q-52 0 -82 -10 q-31 -11 -50 -28 q-26 -22 -39 -52 q-13 -31 -13 -68 q0 -38 7 -68 q7 -30 24 -51 q21 -27 47 -38 q25 -12 62 -12 q26 0 45 5 q18 6 33 16 q12 8 23 20 q11 12 23 27 q10 -14 21 -25 q12 -11 25 -19 q20 -13 44 -18 q24 -6 50 -6 q39 0 72 11 q32 10 55 35 q24 28 35 62 q11 34 13 66 l-133 0 q0 -7 -2 -17 q-2 -10 -5 -16 q-6 -10 -14 -15 q-8 -6 -21 -6 q-13 0 -21 6 q-9 6 -14 15 q-6 12 -8 39 q-2 26 -2 54 l223 0 ZM247 167 q-1 -29 -13 -43 q-13 -15 -32 -15 q-21 0 -33 14 q-13 15 -13 44 q0 11 4 25 q5 13 13 21 q10 9 23 11 q12 2 28 2 l23 0 l0 -59 ZM470 323 l-89 0 q0 28 2 51 q3 23 8 32 q6 8 14 14 q8 6 21 6 q13 0 21 -6 q8 -6 14 -14 q5 -9 7 -32 q2 -23 2 -51 l0 0 Z" /><glyph glyph-name="dotlessi" unicode="&#x131;" d="M182 0 l0 538 l-134 0 l0 -538 l134 0 Z" /><glyph glyph-name="lslash" unicode="&#x142;" d="M272 0 l0 120 q-34 0 -50 15 q-16 16 -16 47 l0 208 l47 36 l0 120 l-47 -36 l0 202 l-134 0 l0 -307 l-47 -36 l0 -120 l47 36 l0 -112 q0 -52 17 -86 q16 -34 45 -54 q29 -20 63 -27 q34 -7 75 -6 l0 0 Z" /><glyph glyph-name="oslash" unicode="ø" d="M398 582 l-84 0 l-22 -49 q-19 7 -39 10 q-21 3 -43 3 q-43 1 -79 -12 q-36 -14 -63 -52 q-25 -40 -31 -99 q-7 -58 -6 -114 q-1 -56 6 -114 q6 -59 31 -99 l-46 -100 l84 0 l22 49 q19 -7 40 -10 q20 -3 42 -3 q43 -1 79 13 q37 13 63 51 q25 40 31 99 q7 58 6 114 q1 56 -6 114 q-6 59 -31 99 l46 100 ZM240 419 l-76 -168 l0 18 q0 48 1 86 q2 38 9 55 q6 12 16 17 q10 5 20 5 q8 0 16 -3 q8 -3 14 -10 l0 0 ZM256 269 q0 -48 -1 -86 q-2 -38 -9 -55 q-6 -12 -16 -17 q-10 -5 -20 -5 q-8 0 -16 3 q-8 3 -14 10 l76 167 l0 -17 Z" /><glyph glyph-name="oe" unicode="&#x153;" d="M612 226 q2 68 -4 146 q-6 78 -49 128 q-28 28 -59 37 q-31 10 -66 9 q-24 0 -47 -8 q-24 -7 -45 -20 q-5 -4 -10 -7 q-4 -4 -8 -8 q-6 7 -14 13 q-20 14 -46 22 q-27 8 -54 8 q-43 1 -79 -12 q-36 -14 -63 -52 q-25 -40 -31 -99 q-7 -58 -6 -114 q-1 -56 6 -114 q6 -59 31 -99 q27 -38 63 -51 q36 -14 79 -13 q27 0 53 8 q25 7 44 20 q10 6 17 15 q7 -8 16 -14 q18 -13 42 -21 q24 -8 52 -8 q39 0 72 11 q32 10 55 35 q24 28 35 62 q11 34 13 66 l-133 0 q0 -7 -2 -17 q-2 -10 -5 -16 q-6 -10 -14 -15 q-8 -6 -21 -6 q-13 0 -21 6 q-9 6 -14 15 q-6 12 -8 39 q-2 26 -2 54 l223 0 ZM255 269 q0 -46 -1 -83 q-2 -36 -9 -53 q-6 -11 -15 -16 q-10 -5 -20 -5 q-10 0 -20 5 q-9 5 -15 16 q-7 17 -9 53 q-1 37 -1 83 q0 46 1 83 q2 36 9 53 q6 11 15 16 q10 5 20 5 q10 0 20 -5 q9 -5 15 -16 q7 -17 9 -53 q1 -37 1 -83 l0 0 ZM478 323 l-89 0 q0 28 2 51 q3 23 8 32 q6 8 14 14 q8 6 21 6 q13 0 21 -6 q8 -6 14 -14 q5 -9 7 -32 q2 -23 2 -51 l0 0 Z" /><glyph glyph-name="germandbls" unicode="ß" d="M411 209 q1 29 -2 59 q-3 29 -15 56 q-8 15 -19 28 q-12 12 -26 22 q27 20 40 47 q12 25 14 50 q3 26 2 52 q1 40 -9 79 q-9 39 -42 73 q-26 26 -60 36 q-33 9 -70 9 q-37 0 -70 -12 q-34 -12 -58 -35 q-24 -22 -37 -52 q-13 -30 -13 -77 l0 -544 l134 0 l0 547 q0 26 13 40 q12 13 32 13 q13 0 22 -5 q8 -4 13 -12 q9 -15 10 -35 q1 -20 1 -38 q0 -16 0 -34 q-1 -18 -9 -31 q-4 -6 -11 -10 q-7 -5 -18 -5 l-8 0 l0 -112 l7 0 q13 0 22 -5 q8 -5 12 -13 q9 -17 10 -39 q1 -22 1 -39 q1 -19 -1 -45 q-1 -25 -13 -43 q-8 -9 -19 -12 q-11 -2 -19 -2 l0 -120 q37 -1 72 8 q35 9 62 35 q37 37 45 80 q9 43 7 86 l0 0 Z" /><glyph glyph-name="Eth" unicode="ð" d="M489 356 q2 73 -5 154 q-7 80 -48 133 q-23 29 -60 48 q-37 20 -96 21 l-201 0 l0 -298 l-50 0 l0 -110 l50 0 l0 -304 l201 0 q59 1 96 21 q37 19 60 48 q41 53 48 133 q7 81 5 154 l0 0 ZM347 357 q1 -61 -2 -116 q-3 -55 -15 -82 q-7 -14 -20 -22 q-13 -9 -33 -9 l-56 0 l0 176 l59 0 l0 110 l-59 0 l0 170 l56 0 q20 0 33 -9 q13 -8 20 -22 q12 -26 15 -81 q3 -54 2 -115 l0 0 Z" /><glyph glyph-name="eth" unicode="ð" d="M391 240 q0 76 -7 128 q-7 53 -21 101 l-27 93 l42 0 l0 97 l-70 0 l-16 53 l-134 0 l16 -53 l-42 0 l0 -97 l72 0 l29 -93 q-13 9 -30 14 q-18 5 -33 5 q-33 0 -57 -9 q-24 -9 -43 -30 q-27 -32 -32 -84 q-6 -53 -5 -125 q-1 -50 7 -102 q7 -52 32 -88 q26 -34 62 -46 q35 -13 78 -12 q43 -1 78 12 q36 12 62 46 q25 36 32 88 q8 52 7 102 l0 0 ZM257 243 q0 -39 -1 -68 q-2 -30 -9 -44 q-6 -10 -15 -14 q-10 -5 -20 -5 q-10 0 -20 5 q-9 4 -15 14 q-7 14 -9 44 q-1 29 -1 68 q0 39 1 68 q2 30 9 44 q6 10 15 14 q10 5 20 5 q10 0 20 -5 q9 -4 15 -14 q7 -14 9 -44 q1 -29 1 -68 l0 0 Z" /><glyph glyph-name="Scaron" unicode="&#x160;" d="M434 203 q1 94 -24 138 q-26 44 -92 68 l-89 36 q-30 12 -40 27 q-10 15 -9 48 q0 18 3 30 q2 12 9 21 q6 8 16 14 q10 5 25 5 q16 0 25 -5 q10 -5 16 -13 q9 -12 11 -29 q1 -16 1 -35 l142 0 q0 54 -13 96 q-13 42 -42 69 q-23 22 -58 33 q-35 12 -82 12 q-40 0 -73 -12 q-33 -11 -58 -33 q-32 -28 -48 -68 q-16 -40 -16 -90 q0 -81 24 -120 q24 -39 78 -59 l90 -37 q37 -14 50 -33 q13 -19 12 -68 q0 -22 -3 -36 q-4 -15 -11 -24 q-7 -9 -18 -13 q-11 -5 -27 -5 q-16 0 -27 5 q-11 5 -17 12 q-9 11 -12 27 q-3 16 -3 38 l-142 0 q0 -54 10 -93 q11 -39 37 -65 q24 -24 63 -38 q38 -14 91 -14 q52 0 91 15 q40 14 64 38 q27 27 37 66 q10 38 9 92 l0 0 ZM390 902 l-98 0 l-59 -77 l-59 77 l-98 0 l106 -145 l102 0 l106 145 Z" /><glyph glyph-name="scaron" unicode="&#x161;" d="M380 165 q0 30 -7 52 q-6 22 -17 36 q-13 19 -33 33 q-20 14 -48 24 l-74 28 q-24 9 -34 24 q-4 5 -5 11 q-2 6 -2 13 q0 20 11 30 q5 5 13 9 q8 3 18 3 q8 0 16 -3 q8 -4 14 -10 q5 -6 8 -15 q3 -8 3 -19 l131 0 q0 41 -14 71 q-14 29 -36 50 q-23 21 -55 33 q-31 11 -67 11 q-36 0 -69 -12 q-34 -12 -58 -37 q-23 -23 -36 -52 q-13 -29 -13 -72 q0 -23 5 -42 q4 -18 13 -33 q13 -20 34 -35 q20 -16 49 -27 l75 -29 q11 -4 20 -10 q9 -6 15 -13 q5 -7 7 -15 q2 -7 2 -15 q0 -9 -3 -17 q-3 -8 -8 -13 q-7 -7 -14 -9 q-8 -2 -18 -2 q-9 0 -18 4 q-9 3 -15 10 q-12 12 -14 35 l-132 0 q1 -40 14 -69 q14 -30 37 -54 q23 -23 57 -35 q34 -12 71 -12 q36 0 68 9 q32 10 58 36 q22 22 36 53 q14 31 15 75 l0 0 ZM362 732 l-98 0 l-59 -77 l-59 77 l-98 0 l106 -145 l102 0 l106 145 Z" /><glyph glyph-name="Yacute" unicode="ý" d="M431 712 l-156 0 l-60 -258 l-60 258 l-156 0 l145 -444 l0 -268 l142 0 l0 268 l145 444 ZM342 902 l-107 0 l-76 -145 l88 0 l95 145 Z" /><glyph glyph-name="yacute" unicode="ý" d="M420 538 l-148 0 l-60 -325 l-60 325 l-148 0 l137 -538 l-2 -7 q-12 -38 -37 -44 q-26 -6 -57 -5 l0 -118 q81 -4 141 17 q60 21 84 108 l150 587 ZM339 732 l-107 0 l-76 -145 l88 0 l95 145 Z" /><glyph glyph-name="Thorn" unicode="þ" d="M456 362 q2 105 -42 165 q-44 60 -158 61 l-59 0 l0 124 l-142 0 l0 -712 l142 0 l0 133 l59 0 q114 1 158 62 q44 61 42 167 l0 0 ZM314 361 q2 -36 -8 -67 q-10 -31 -49 -33 l-60 0 l0 199 l60 0 q39 -2 49 -33 q10 -30 8 -66 l0 0 Z" /><glyph glyph-name="thorn" unicode="þ" d="M403 269 q1 80 -5 139 q-5 59 -32 94 q-19 24 -43 34 q-24 10 -57 10 q-13 0 -26 -3 q-14 -4 -25 -10 q-10 -6 -22 -16 q-12 -10 -17 -18 l0 213 l-128 0 l0 -886 l134 0 l0 206 q15 -16 33 -27 q11 -6 25 -9 q13 -4 26 -4 q33 0 57 10 q24 10 43 34 q27 35 32 94 q6 59 5 139 l0 0 ZM269 269 q0 -46 -1 -83 q-2 -36 -9 -53 q-6 -11 -15 -16 q-10 -5 -20 -5 q-8 0 -15 3 q-8 3 -14 8 q-6 6 -9 16 q-4 9 -4 22 l0 216 q0 13 4 22 q3 10 9 16 q6 5 14 8 q7 3 15 3 q10 0 20 -5 q9 -5 15 -16 q7 -17 9 -53 q1 -37 1 -83 l0 0 Z" /><glyph glyph-name="Zcaron" unicode="&#x17d;" d="M368 0 l0 128 l-188 0 l188 479 l0 105 l-326 0 l0 -128 l178 0 l-188 -479 l0 -105 l336 0 ZM362 902 l-98 0 l-59 -77 l-59 77 l-98 0 l106 -145 l102 0 l106 145 Z" /><glyph glyph-name="zcaron" unicode="&#x17e;" d="M325 0 l0 120 l-144 0 l144 318 l0 100 l-283 0 l0 -120 l131 0 l-144 -318 l0 -100 l296 0 ZM342 732 l-98 0 l-59 -77 l-59 77 l-98 0 l106 -145 l102 0 l106 145 Z" /><glyph glyph-name="onehalf" unicode="½" d="M561 712 l-102 0 l-245 -712 l102 0 l245 712 ZM744 0 l0 72 l-144 0 l115 165 q12 17 20 42 q9 25 9 48 q0 28 -11 48 q-11 20 -28 33 q-18 13 -40 19 q-21 5 -47 5 q-26 0 -50 -7 q-23 -6 -41 -20 q-17 -13 -26 -31 q-9 -19 -9 -46 l0 -33 l95 0 l0 36 q0 15 9 22 q9 7 22 7 q13 0 21 -7 q9 -8 9 -23 q0 -21 -5 -38 q-5 -17 -14 -30 l-131 -193 l0 -69 l246 0 ZM224 285 l0 427 l-95 0 l-78 -50 l0 -91 l78 47 l0 -333 l95 0 Z" /><glyph glyph-name="onequarter" unicode="¼" d="M561 712 l-102 0 l-245 -712 l102 0 l245 712 ZM758 62 l0 73 l-35 0 l0 51 l-95 0 l0 -51 l-47 0 l95 292 l-93 0 l-100 -292 l0 -73 l145 0 l0 -62 l95 0 l0 62 l35 0 ZM224 285 l0 427 l-95 0 l-78 -50 l0 -91 l78 47 l0 -333 l95 0 Z" /><glyph glyph-name="onesuperior" unicode="¹" d="M225 285 l0 427 l-95 0 l-79 -50 l0 -91 l79 47 l0 -333 l95 0 Z" /><glyph glyph-name="threequarters" unicode="¾" d="M561 712 l-102 0 l-245 -712 l102 0 l245 712 ZM285 409 q0 18 -2 37 q-3 18 -12 35 q-5 8 -12 15 q-7 7 -17 14 q18 11 27 27 q8 15 10 31 q2 16 2 33 q0 28 -9 51 q-8 23 -27 39 q-30 26 -87 26 q-26 0 -48 -7 q-23 -6 -40 -20 q-17 -13 -26 -32 q-8 -18 -8 -44 l0 -24 l95 0 l0 29 q0 12 6 18 q4 4 9 6 q6 2 12 2 q15 0 21 -8 q6 -8 7 -20 q0 -12 0 -22 q0 -10 -1 -24 q-1 -13 -8 -21 q-6 -6 -20 -6 l-23 0 l0 -68 l23 0 q9 0 15 -3 q6 -2 10 -7 q6 -9 7 -24 q1 -16 1 -27 q0 -12 -1 -28 q-2 -16 -8 -25 q-3 -4 -9 -7 q-6 -3 -14 -3 q-14 0 -23 9 q-8 8 -8 21 l0 25 l-95 0 l0 -22 q0 -27 9 -46 q9 -18 26 -31 q18 -14 41 -21 q24 -7 50 -7 q26 0 50 7 q23 7 41 20 q27 22 32 48 q5 25 4 54 l0 0 ZM758 62 l0 73 l-36 0 l0 51 l-95 0 l0 -51 l-46 0 l94 292 l-92 0 l-101 -292 l0 -73 l145 0 l0 -62 l95 0 l0 62 l36 0 Z" /><glyph glyph-name="threesuperior" unicode="³" d="M285 409 q0 18 -2 37 q-3 18 -12 35 q-5 8 -12 15 q-7 7 -17 14 q18 11 27 27 q8 15 10 31 q2 16 2 33 q0 28 -9 51 q-8 23 -27 39 q-30 26 -87 26 q-26 0 -48 -7 q-23 -6 -40 -20 q-17 -13 -26 -32 q-8 -18 -8 -44 l0 -24 l95 0 l0 29 q0 12 6 18 q4 4 9 6 q6 2 12 2 q15 0 21 -8 q6 -8 7 -20 q0 -12 0 -22 q0 -10 -1 -24 q-1 -13 -8 -21 q-6 -6 -20 -6 l-23 0 l0 -68 l23 0 q9 0 15 -3 q6 -2 10 -7 q6 -9 7 -24 q1 -16 1 -27 q0 -12 -1 -28 q-2 -16 -8 -25 q-3 -4 -9 -7 q-6 -3 -14 -3 q-14 0 -23 9 q-8 8 -8 21 l0 25 l-95 0 l0 -22 q0 -27 9 -46 q9 -18 26 -31 q18 -14 41 -21 q24 -7 50 -7 q26 0 50 7 q23 7 41 20 q27 22 32 48 q5 25 4 54 l0 0 Z" /><glyph glyph-name="twosuperior" unicode="²" d="M284 285 l0 72 l-144 0 l115 165 q12 17 20 42 q9 25 9 48 q0 28 -11 48 q-11 20 -28 33 q-18 13 -40 19 q-21 5 -47 5 q-26 0 -50 -7 q-23 -6 -41 -20 q-17 -13 -26 -31 q-9 -19 -9 -46 l0 -33 l95 0 l0 36 q0 15 9 22 q9 7 22 7 q13 0 21 -7 q9 -8 9 -23 q0 -21 -5 -38 q-5 -17 -14 -30 l-131 -193 l0 -69 l246 0 Z" /><glyph glyph-name="brokenbar" unicode="¦" d="M254 439 l0 344 l-134 0 l0 -344 l134 0 ZM254 -71 l0 344 l-134 0 l0 -344 l134 0 Z" /><glyph glyph-name="minus" unicode="&#x2212;" d="M250 231 l0 128 l-208 0 l0 -128 l208 0 Z" /><glyph glyph-name="multiply" unicode="×" d="M437 181 l-115 115 l115 115 l-86 86 l-115 -115 l-115 115 l-86 -86 l115 -115 l-115 -115 l86 -86 l115 115 l115 -115 l86 86 Z" /><glyph glyph-name="Adieresis" unicode="ä" d="M512 0 l-183 712 l-140 0 l-183 -712 l148 0 l23 111 l164 0 l23 -111 l148 0 ZM314 239 l-110 0 l55 264 l55 -264 ZM417 762 l0 120 l-120 0 l0 -120 l120 0 ZM221 762 l0 120 l-120 0 l0 -120 l120 0 Z" /><glyph glyph-name="Aring" unicode="å" d="M512 0 l-183 712 l-140 0 l-183 -712 l148 0 l23 111 l164 0 l23 -111 l148 0 ZM371 871 q-1 48 -33 80 q-31 31 -79 32 q-48 -1 -79 -33 q-32 -31 -33 -79 q1 -48 33 -79 q31 -32 79 -33 q48 1 79 33 q32 31 33 79 l0 0 ZM314 239 l-110 0 l55 264 l55 -264 ZM301 871 q0 -18 -12 -30 q-12 -12 -30 -12 q-18 0 -30 12 q-12 12 -12 30 q0 18 12 30 q12 12 30 12 q18 0 30 -12 q12 -12 12 -30 l0 0 Z" /><glyph glyph-name="Ccedilla" unicode="ç" d="M444 203 l-142 0 q-1 -15 -3 -29 q-2 -15 -8 -26 q-6 -13 -18 -20 q-12 -8 -31 -8 q-19 0 -30 8 q-11 8 -17 20 q-12 27 -16 84 q-3 58 -3 124 q0 66 3 124 q4 57 16 84 q6 12 17 20 q11 8 30 8 q19 0 31 -7 q11 -7 17 -20 q6 -11 8 -26 q2 -14 3 -29 l142 0 q-2 51 -19 92 q-16 40 -44 67 q-27 26 -60 38 q-34 13 -78 13 q-59 -1 -95 -21 q-36 -20 -60 -50 q-41 -54 -48 -136 q-7 -83 -5 -158 q-2 -75 5 -156 q7 -82 48 -136 q24 -30 60 -50 q36 -20 95 -21 q44 0 78 13 q33 13 60 38 q28 27 45 68 q17 41 19 92 l0 0 ZM284 -41 l-80 0 l-66 -166 l89 0 l57 166 Z" /><glyph glyph-name="Eacute" unicode="é" d="M383 0 l0 128 l-186 0 l0 167 l160 0 l0 128 l-160 0 l0 161 l186 0 l0 128 l-328 0 l0 -712 l328 0 ZM349 902 l-107 0 l-76 -145 l88 0 l95 145 Z" /><glyph glyph-name="Ntilde" unicode="ñ" d="M469 0 l0 712 l-142 0 l0 -348 l-148 348 l-124 0 l0 -712 l142 0 l0 348 l151 -348 l121 0 ZM428 815 l-57 56 q-15 -14 -25 -18 q-11 -4 -22 -4 q-12 0 -23 4 q-11 3 -22 10 q-18 10 -33 14 q-15 4 -33 4 q-28 0 -51 -13 q-22 -13 -48 -39 l55 -56 q15 15 26 19 q11 4 22 3 q12 0 23 -4 q11 -3 22 -10 q18 -10 33 -14 q15 -3 33 -3 q28 0 51 12 q23 13 49 39 l0 0 Z" /><glyph glyph-name="Odieresis" unicode="ö" d="M452 356 q2 75 -5 157 q-7 82 -48 136 q-24 30 -61 50 q-37 20 -96 21 q-59 -1 -95 -21 q-36 -20 -60 -50 q-41 -54 -48 -136 q-7 -82 -5 -157 q-2 -75 5 -157 q7 -82 48 -136 q24 -30 60 -50 q36 -20 95 -21 q59 1 96 21 q37 20 61 50 q41 54 48 136 q7 82 5 157 l0 0 ZM310 356 q0 -66 -3 -124 q-4 -57 -16 -84 q-6 -12 -18 -20 q-12 -8 -31 -8 q-19 0 -30 8 q-11 8 -17 20 q-12 27 -16 84 q-3 58 -3 124 q0 66 3 124 q4 57 16 84 q6 12 17 20 q11 8 30 8 q19 0 31 -8 q12 -8 18 -20 q12 -27 16 -84 q3 -58 3 -124 l0 0 ZM393 762 l0 120 l-120 0 l0 -120 l120 0 ZM197 762 l0 120 l-120 0 l0 -120 l120 0 Z" /><glyph glyph-name="Udieresis" unicode="ü" d="M452 191 l0 521 l-142 0 l0 -528 q-1 -34 -17 -49 q-17 -15 -42 -15 q-25 0 -41 15 q-17 15 -18 49 l0 528 l-142 0 l0 -521 q0 -43 14 -78 q13 -36 39 -62 q29 -29 66 -44 q37 -15 82 -15 q45 0 82 15 q37 15 66 44 q26 26 39 62 q14 35 14 78 l0 0 ZM213 762 l0 120 l-120 0 l0 -120 l120 0 ZM409 762 l0 120 l-120 0 l0 -120 l120 0 Z" /><glyph glyph-name="aacute" unicode="á" d="M381 0 l0 368 q0 46 -14 79 q-14 33 -37 55 q-24 24 -57 34 q-32 10 -67 10 q-36 0 -70 -14 q-34 -13 -55 -34 q-26 -27 -38 -57 q-11 -30 -11 -63 l134 0 q0 22 12 37 q5 6 12 10 q7 3 17 3 q19 0 29 -12 q11 -12 11 -35 l0 -62 l-41 0 q-52 0 -82 -10 q-31 -11 -50 -28 q-26 -22 -39 -52 q-13 -31 -13 -68 q0 -38 7 -68 q7 -30 24 -51 q21 -27 47 -38 q25 -12 62 -12 q20 0 34 4 q13 5 25 13 q10 7 19 16 q8 9 16 19 l0 -44 l125 0 ZM339 732 l-107 0 l-76 -145 l88 0 l95 145 ZM247 167 q-1 -29 -13 -43 q-13 -15 -32 -15 q-21 0 -33 14 q-13 15 -13 44 q0 11 4 25 q5 13 13 21 q10 9 23 11 q12 2 28 2 l23 0 l0 -59 Z" /><glyph glyph-name="agrave" unicode="à" d="M381 0 l0 368 q0 46 -14 79 q-14 33 -37 55 q-24 24 -57 34 q-32 10 -67 10 q-36 0 -70 -14 q-34 -13 -55 -34 q-26 -27 -38 -57 q-11 -30 -11 -63 l134 0 q0 22 12 37 q5 6 12 10 q7 3 17 3 q19 0 29 -12 q11 -12 11 -35 l0 -62 l-41 0 q-52 0 -82 -10 q-31 -11 -50 -28 q-26 -22 -39 -52 q-13 -31 -13 -68 q0 -38 7 -68 q7 -30 24 -51 q21 -27 47 -38 q25 -12 62 -12 q20 0 34 4 q13 5 25 13 q10 7 19 16 q8 9 16 19 l0 -44 l125 0 ZM265 587 l-76 145 l-107 0 l95 -145 l88 0 ZM247 167 q-1 -29 -13 -43 q-13 -15 -32 -15 q-21 0 -33 14 q-13 15 -13 44 q0 11 4 25 q5 13 13 21 q10 9 23 11 q12 2 28 2 l23 0 l0 -59 Z" /><glyph glyph-name="acircumflex" unicode="â" d="M381 0 l0 368 q0 46 -14 79 q-14 33 -37 55 q-24 24 -57 34 q-32 10 -67 10 q-36 0 -70 -14 q-34 -13 -55 -34 q-26 -27 -38 -57 q-11 -30 -11 -63 l134 0 q0 22 12 37 q5 6 12 10 q7 3 17 3 q19 0 29 -12 q11 -12 11 -35 l0 -62 l-41 0 q-52 0 -82 -10 q-31 -11 -50 -28 q-26 -22 -39 -52 q-13 -31 -13 -68 q0 -38 7 -68 q7 -30 24 -51 q21 -27 47 -38 q25 -12 62 -12 q20 0 34 4 q13 5 25 13 q10 7 19 16 q8 9 16 19 l0 -44 l125 0 ZM365 587 l-106 145 l-102 0 l-106 -145 l98 0 l59 77 l59 -77 l98 0 ZM247 167 q-1 -29 -13 -43 q-13 -15 -32 -15 q-21 0 -33 14 q-13 15 -13 44 q0 11 4 25 q5 13 13 21 q10 9 23 11 q12 2 28 2 l23 0 l0 -59 Z" /><glyph glyph-name="adieresis" unicode="ä" d="M381 0 l0 368 q0 46 -14 79 q-14 33 -37 55 q-24 24 -57 34 q-32 10 -67 10 q-36 0 -70 -14 q-34 -13 -55 -34 q-26 -27 -38 -57 q-11 -30 -11 -63 l134 0 q0 22 12 37 q5 6 12 10 q7 3 17 3 q19 0 29 -12 q11 -12 11 -35 l0 -62 l-41 0 q-52 0 -82 -10 q-31 -11 -50 -28 q-26 -22 -39 -52 q-13 -31 -13 -68 q0 -38 7 -68 q7 -30 24 -51 q21 -27 47 -38 q25 -12 62 -12 q20 0 34 4 q13 5 25 13 q10 7 19 16 q8 9 16 19 l0 -44 l125 0 ZM170 592 l0 120 l-120 0 l0 -120 l120 0 ZM366 592 l0 120 l-120 0 l0 -120 l120 0 ZM247 167 q-1 -29 -13 -43 q-13 -15 -32 -15 q-21 0 -33 14 q-13 15 -13 44 q0 11 4 25 q5 13 13 21 q10 9 23 11 q12 2 28 2 l23 0 l0 -59 Z" /><glyph glyph-name="atilde" unicode="ã" d="M381 0 l0 368 q0 46 -14 79 q-14 33 -37 55 q-24 24 -57 34 q-32 10 -67 10 q-36 0 -70 -14 q-34 -13 -55 -34 q-26 -27 -38 -57 q-11 -30 -11 -63 l134 0 q0 22 12 37 q5 6 12 10 q7 3 17 3 q19 0 29 -12 q11 -12 11 -35 l0 -62 l-41 0 q-52 0 -82 -10 q-31 -11 -50 -28 q-26 -22 -39 -52 q-13 -31 -13 -68 q0 -38 7 -68 q7 -30 24 -51 q21 -27 47 -38 q25 -12 62 -12 q20 0 34 4 q13 5 25 13 q10 7 19 16 q8 9 16 19 l0 -44 l125 0 ZM370 645 l-57 56 q-15 -14 -25 -18 q-11 -4 -22 -4 q-12 0 -23 4 q-11 3 -22 10 q-18 10 -33 14 q-15 4 -33 4 q-28 0 -51 -13 q-22 -13 -48 -39 l55 -56 q15 15 26 19 q11 4 22 3 q12 0 23 -4 q11 -3 22 -10 q18 -10 33 -14 q15 -3 33 -3 q28 0 51 12 q23 13 49 39 l0 0 ZM247 167 q-1 -29 -13 -43 q-13 -15 -32 -15 q-21 0 -33 14 q-13 15 -13 44 q0 11 4 25 q5 13 13 21 q10 9 23 11 q12 2 28 2 l23 0 l0 -59 Z" /><glyph glyph-name="aring" unicode="å" d="M381 0 l0 368 q0 46 -14 79 q-14 33 -37 55 q-24 24 -57 34 q-32 10 -67 10 q-36 0 -70 -14 q-34 -13 -55 -34 q-26 -27 -38 -57 q-11 -30 -11 -63 l134 0 q0 22 12 37 q5 6 12 10 q7 3 17 3 q19 0 29 -12 q11 -12 11 -35 l0 -62 l-41 0 q-52 0 -82 -10 q-31 -11 -50 -28 q-26 -22 -39 -52 q-13 -31 -13 -68 q0 -38 7 -68 q7 -30 24 -51 q21 -27 47 -38 q25 -12 62 -12 q20 0 34 4 q13 5 25 13 q10 7 19 16 q8 9 16 19 l0 -44 l125 0 ZM320 701 q-1 48 -33 80 q-31 31 -79 32 q-48 -1 -79 -33 q-32 -31 -33 -79 q1 -48 33 -79 q31 -32 79 -33 q48 1 79 33 q32 31 33 79 l0 0 ZM247 167 q-1 -29 -13 -43 q-13 -15 -32 -15 q-21 0 -33 14 q-13 15 -13 44 q0 11 4 25 q5 13 13 21 q10 9 23 11 q12 2 28 2 l23 0 l0 -59 ZM250 701 q0 -18 -12 -30 q-12 -12 -30 -12 q-18 0 -30 12 q-12 12 -12 30 q0 18 12 30 q12 12 30 12 q18 0 30 -12 q12 -12 12 -30 l0 0 Z" /><glyph glyph-name="ccedilla" unicode="ç" d="M385 166 l-133 0 q-1 -8 -2 -18 q-2 -9 -7 -18 q-4 -8 -13 -13 q-8 -5 -20 -5 q-10 0 -20 5 q-9 5 -15 16 q-7 17 -9 53 q-1 37 -1 83 q0 46 1 83 q2 36 9 53 q6 11 15 16 q10 5 20 5 q12 0 20 -5 q8 -4 12 -12 q5 -8 7 -18 q2 -10 3 -19 l133 0 q-2 36 -14 72 q-13 35 -39 61 q-26 24 -56 33 q-30 9 -66 8 q-43 1 -79 -12 q-36 -14 -63 -52 q-25 -40 -31 -99 q-7 -58 -6 -114 q-1 -56 6 -114 q6 -59 31 -99 q27 -38 63 -51 q36 -14 79 -13 q39 0 71 10 q31 10 53 32 q23 24 36 59 q13 35 15 73 l0 0 ZM262 -41 l-80 0 l-66 -166 l89 0 l57 166 Z" /><glyph glyph-name="eacute" unicode="é" d="M388 226 q2 68 -4 146 q-6 78 -49 128 q-28 28 -59 37 q-31 10 -66 9 q-34 1 -66 -9 q-31 -10 -60 -37 q-37 -40 -46 -104 q-9 -64 -7 -127 q-2 -63 7 -127 q9 -63 46 -103 q28 -27 57 -37 q29 -11 69 -10 q39 0 72 11 q32 10 55 35 q24 28 35 62 q11 34 13 66 l-133 0 q0 -7 -2 -17 q-2 -10 -5 -16 q-6 -10 -14 -15 q-8 -6 -21 -6 q-13 0 -21 6 q-9 6 -14 15 q-6 12 -8 39 q-2 26 -2 54 l223 0 ZM339 732 l-107 0 l-76 -145 l88 0 l95 145 ZM254 323 l-89 0 q0 28 2 51 q3 23 8 32 q6 8 14 14 q8 6 21 6 q13 0 21 -6 q8 -6 14 -14 q5 -9 7 -32 q2 -23 2 -51 l0 0 Z" /><glyph glyph-name="egrave" unicode="è" d="M388 226 q2 68 -4 146 q-6 78 -49 128 q-28 28 -59 37 q-31 10 -66 9 q-34 1 -66 -9 q-31 -10 -60 -37 q-37 -40 -46 -104 q-9 -64 -7 -127 q-2 -63 7 -127 q9 -63 46 -103 q28 -27 57 -37 q29 -11 69 -10 q39 0 72 11 q32 10 55 35 q24 28 35 62 q11 34 13 66 l-133 0 q0 -7 -2 -17 q-2 -10 -5 -16 q-6 -10 -14 -15 q-8 -6 -21 -6 q-13 0 -21 6 q-9 6 -14 15 q-6 12 -8 39 q-2 26 -2 54 l223 0 ZM268 587 l-76 145 l-107 0 l95 -145 l88 0 ZM254 323 l-89 0 q0 28 2 51 q3 23 8 32 q6 8 14 14 q8 6 21 6 q13 0 21 -6 q8 -6 14 -14 q5 -9 7 -32 q2 -23 2 -51 l0 0 Z" /><glyph glyph-name="ecircumflex" unicode="ê" d="M388 226 q2 68 -4 146 q-6 78 -49 128 q-28 28 -59 37 q-31 10 -66 9 q-34 1 -66 -9 q-31 -10 -60 -37 q-37 -40 -46 -104 q-9 -64 -7 -127 q-2 -63 7 -127 q9 -63 46 -103 q28 -27 57 -37 q29 -11 69 -10 q39 0 72 11 q32 10 55 35 q24 28 35 62 q11 34 13 66 l-133 0 q0 -7 -2 -17 q-2 -10 -5 -16 q-6 -10 -14 -15 q-8 -6 -21 -6 q-13 0 -21 6 q-9 6 -14 15 q-6 12 -8 39 q-2 26 -2 54 l223 0 ZM369 587 l-106 145 l-102 0 l-106 -145 l98 0 l59 77 l59 -77 l98 0 ZM254 323 l-89 0 q0 28 2 51 q3 23 8 32 q6 8 14 14 q8 6 21 6 q13 0 21 -6 q8 -6 14 -14 q5 -9 7 -32 q2 -23 2 -51 l0 0 Z" /><glyph glyph-name="edieresis" unicode="ë" d="M388 226 q2 68 -4 146 q-6 78 -49 128 q-28 28 -59 37 q-31 10 -66 9 q-34 1 -66 -9 q-31 -10 -60 -37 q-37 -40 -46 -104 q-9 -64 -7 -127 q-2 -63 7 -127 q9 -63 46 -103 q28 -27 57 -37 q29 -11 69 -10 q39 0 72 11 q32 10 55 35 q24 28 35 62 q11 34 13 66 l-133 0 q0 -7 -2 -17 q-2 -10 -5 -16 q-6 -10 -14 -15 q-8 -6 -21 -6 q-13 0 -21 6 q-9 6 -14 15 q-6 12 -8 39 q-2 26 -2 54 l223 0 ZM174 592 l0 120 l-120 0 l0 -120 l120 0 ZM370 592 l0 120 l-120 0 l0 -120 l120 0 ZM254 323 l-89 0 q0 28 2 51 q3 23 8 32 q6 8 14 14 q8 6 21 6 q13 0 21 -6 q8 -6 14 -14 q5 -9 7 -32 q2 -23 2 -51 l0 0 Z" /><glyph glyph-name="iacute" unicode="í" d="M182 0 l0 538 l-134 0 l0 -538 l134 0 ZM243 732 l-107 0 l-76 -145 l88 0 l95 145 Z" /><glyph glyph-name="igrave" unicode="ì" d="M182 0 l0 538 l-134 0 l0 -538 l134 0 ZM174 587 l-76 145 l-107 0 l95 -145 l88 0 Z" /><glyph glyph-name="icircumflex" unicode="î" d="M182 0 l0 538 l-134 0 l0 -538 l134 0 ZM271 587 l-106 145 l-102 0 l-106 -145 l98 0 l59 77 l59 -77 l98 0 Z" /><glyph glyph-name="idieresis" unicode="ï" d="M182 0 l0 538 l-134 0 l0 -538 l134 0 ZM76 592 l0 120 l-120 0 l0 -120 l120 0 ZM272 592 l0 120 l-120 0 l0 -120 l120 0 Z" /><glyph glyph-name="ntilde" unicode="ñ" d="M398 0 l0 379 q0 49 -7 76 q-7 28 -23 46 q-19 23 -43 34 q-25 11 -61 11 q-13 0 -26 -3 q-14 -4 -25 -10 q-11 -6 -21 -15 q-10 -9 -18 -19 l0 39 l-128 0 l0 -538 l134 0 l0 377 q0 25 12 37 q12 12 30 12 q18 0 30 -12 q12 -12 12 -37 l0 -377 l134 0 ZM386 645 l-57 56 q-15 -14 -25 -18 q-11 -4 -22 -4 q-12 0 -23 4 q-11 3 -22 10 q-18 10 -33 14 q-15 4 -33 4 q-28 0 -51 -13 q-22 -13 -48 -39 l55 -56 q15 15 26 19 q11 4 22 3 q12 0 23 -4 q11 -3 22 -10 q18 -10 33 -14 q15 -3 33 -3 q28 0 51 12 q23 13 49 39 l0 0 Z" /><glyph glyph-name="oacute" unicode="ó" d="M389 269 q1 56 -6 114 q-6 59 -31 99 q-26 38 -63 52 q-36 13 -79 12 q-43 1 -79 -12 q-36 -14 -63 -52 q-25 -40 -31 -99 q-7 -58 -6 -114 q-1 -56 6 -114 q6 -59 31 -99 q27 -38 63 -51 q36 -14 79 -13 q43 -1 79 13 q37 13 63 51 q25 40 31 99 q7 58 6 114 l0 0 ZM255 269 q0 -46 -1 -83 q-2 -36 -9 -53 q-6 -11 -15 -16 q-10 -5 -20 -5 q-10 0 -20 5 q-9 5 -15 16 q-7 17 -9 53 q-1 37 -1 83 q0 46 1 83 q2 36 9 53 q6 11 15 16 q10 5 20 5 q10 0 20 -5 q9 -5 15 -16 q7 -17 9 -53 q1 -37 1 -83 l0 0 ZM339 732 l-107 0 l-76 -145 l88 0 l95 145 Z" /><glyph glyph-name="ograve" unicode="ò" d="M389 269 q1 56 -6 114 q-6 59 -31 99 q-26 38 -63 52 q-36 13 -79 12 q-43 1 -79 -12 q-36 -14 -63 -52 q-25 -40 -31 -99 q-7 -58 -6 -114 q-1 -56 6 -114 q6 -59 31 -99 q27 -38 63 -51 q36 -14 79 -13 q43 -1 79 13 q37 13 63 51 q25 40 31 99 q7 58 6 114 l0 0 ZM255 269 q0 -46 -1 -83 q-2 -36 -9 -53 q-6 -11 -15 -16 q-10 -5 -20 -5 q-10 0 -20 5 q-9 5 -15 16 q-7 17 -9 53 q-1 37 -1 83 q0 46 1 83 q2 36 9 53 q6 11 15 16 q10 5 20 5 q10 0 20 -5 q9 -5 15 -16 q7 -17 9 -53 q1 -37 1 -83 l0 0 ZM268 587 l-76 145 l-107 0 l95 -145 l88 0 Z" /><glyph glyph-name="ocircumflex" unicode="ô" d="M389 269 q1 56 -6 114 q-6 59 -31 99 q-26 38 -63 52 q-36 13 -79 12 q-43 1 -79 -12 q-36 -14 -63 -52 q-25 -40 -31 -99 q-7 -58 -6 -114 q-1 -56 6 -114 q6 -59 31 -99 q27 -38 63 -51 q36 -14 79 -13 q43 -1 79 13 q37 13 63 51 q25 40 31 99 q7 58 6 114 l0 0 ZM255 269 q0 -46 -1 -83 q-2 -36 -9 -53 q-6 -11 -15 -16 q-10 -5 -20 -5 q-10 0 -20 5 q-9 5 -15 16 q-7 17 -9 53 q-1 37 -1 83 q0 46 1 83 q2 36 9 53 q6 11 15 16 q10 5 20 5 q10 0 20 -5 q9 -5 15 -16 q7 -17 9 -53 q1 -37 1 -83 l0 0 ZM369 587 l-106 145 l-102 0 l-106 -145 l98 0 l59 77 l59 -77 l98 0 Z" /><glyph glyph-name="odieresis" unicode="ö" d="M389 269 q1 56 -6 114 q-6 59 -31 99 q-26 38 -63 52 q-36 13 -79 12 q-43 1 -79 -12 q-36 -14 -63 -52 q-25 -40 -31 -99 q-7 -58 -6 -114 q-1 -56 6 -114 q6 -59 31 -99 q27 -38 63 -51 q36 -14 79 -13 q43 -1 79 13 q37 13 63 51 q25 40 31 99 q7 58 6 114 l0 0 ZM255 269 q0 -46 -1 -83 q-2 -36 -9 -53 q-6 -11 -15 -16 q-10 -5 -20 -5 q-10 0 -20 5 q-9 5 -15 16 q-7 17 -9 53 q-1 37 -1 83 q0 46 1 83 q2 36 9 53 q6 11 15 16 q10 5 20 5 q10 0 20 -5 q9 -5 15 -16 q7 -17 9 -53 q1 -37 1 -83 l0 0 ZM370 592 l0 120 l-120 0 l0 -120 l120 0 ZM174 592 l0 120 l-120 0 l0 -120 l120 0 Z" /><glyph glyph-name="otilde" unicode="õ" d="M389 269 q1 56 -6 114 q-6 59 -31 99 q-26 38 -63 52 q-36 13 -79 12 q-43 1 -79 -12 q-36 -14 -63 -52 q-25 -40 -31 -99 q-7 -58 -6 -114 q-1 -56 6 -114 q6 -59 31 -99 q27 -38 63 -51 q36 -14 79 -13 q43 -1 79 13 q37 13 63 51 q25 40 31 99 q7 58 6 114 l0 0 ZM255 269 q0 -46 -1 -83 q-2 -36 -9 -53 q-6 -11 -15 -16 q-10 -5 -20 -5 q-10 0 -20 5 q-9 5 -15 16 q-7 17 -9 53 q-1 37 -1 83 q0 46 1 83 q2 36 9 53 q6 11 15 16 q10 5 20 5 q10 0 20 -5 q9 -5 15 -16 q7 -17 9 -53 q1 -37 1 -83 l0 0 ZM373 645 l-57 56 q-15 -14 -25 -18 q-11 -4 -22 -4 q-12 0 -23 4 q-11 3 -22 10 q-18 10 -33 14 q-15 4 -33 4 q-28 0 -51 -13 q-22 -13 -48 -39 l55 -56 q15 15 26 19 q11 4 22 3 q12 0 23 -4 q11 -3 22 -10 q18 -10 33 -14 q15 -3 33 -3 q28 0 51 12 q23 13 49 39 l0 0 Z" /><glyph glyph-name="uacute" unicode="ú" d="M396 0 l0 538 l-134 0 l0 -377 q0 -25 -12 -37 q-12 -12 -30 -12 q-18 0 -30 12 q-12 12 -12 37 l0 377 l-134 0 l0 -379 q0 -49 7 -76 q7 -28 23 -46 q19 -23 43 -34 q25 -11 61 -11 q13 0 26 4 q14 3 25 9 q11 6 21 15 q10 9 18 19 l0 -39 l128 0 ZM361 732 l-107 0 l-76 -145 l88 0 l95 145 Z" /><glyph glyph-name="ugrave" unicode="ù" d="M396 0 l0 538 l-134 0 l0 -377 q0 -25 -12 -37 q-12 -12 -30 -12 q-18 0 -30 12 q-12 12 -12 37 l0 377 l-134 0 l0 -379 q0 -49 7 -76 q7 -28 23 -46 q19 -23 43 -34 q25 -11 61 -11 q13 0 26 4 q14 3 25 9 q11 6 21 15 q10 9 18 19 l0 -39 l128 0 ZM268 587 l-76 145 l-107 0 l95 -145 l88 0 Z" /><glyph glyph-name="ucircumflex" unicode="û" d="M396 0 l0 538 l-134 0 l0 -377 q0 -25 -12 -37 q-12 -12 -30 -12 q-18 0 -30 12 q-12 12 -12 37 l0 377 l-134 0 l0 -379 q0 -49 7 -76 q7 -28 23 -46 q19 -23 43 -34 q25 -11 61 -11 q13 0 26 4 q14 3 25 9 q11 6 21 15 q10 9 18 19 l0 -39 l128 0 ZM377 587 l-106 145 l-102 0 l-106 -145 l98 0 l59 77 l59 -77 l98 0 Z" /><glyph glyph-name="udieresis" unicode="ü" d="M396 0 l0 538 l-134 0 l0 -377 q0 -25 -12 -37 q-12 -12 -30 -12 q-18 0 -30 12 q-12 12 -12 37 l0 377 l-134 0 l0 -379 q0 -49 7 -76 q7 -28 23 -46 q19 -23 43 -34 q25 -11 61 -11 q13 0 26 4 q14 3 25 9 q11 6 21 15 q10 9 18 19 l0 -39 l128 0 ZM181 592 l0 120 l-120 0 l0 -120 l120 0 ZM377 592 l0 120 l-120 0 l0 -120 l120 0 Z" /><glyph glyph-name="degree" unicode="°" d="M390 553 q-2 75 -52 125 q-50 50 -125 52 q-75 -2 -125 -52 q-50 -50 -52 -125 q2 -75 52 -125 q50 -50 125 -52 q75 2 125 52 q50 50 52 125 l0 0 ZM272 553 q-1 -25 -17 -42 q-17 -16 -42 -17 q-25 1 -42 17 q-16 17 -17 42 q1 25 17 42 q17 16 42 17 q25 -1 42 -17 q16 -17 17 -42 l0 0 Z" /><glyph glyph-name="registered" unicode="®" d="M779 356 q-4 154 -106 256 q-102 102 -256 106 q-154 -4 -256 -106 q-102 -102 -106 -256 q4 -154 106 -256 q102 -102 256 -106 q154 4 256 106 q102 102 106 256 l0 0 ZM693 356 q-2 -127 -79 -204 q-76 -77 -197 -79 q-121 2 -197 79 q-77 77 -79 204 q2 127 79 204 q76 77 197 79 q121 -2 197 -79 q77 -77 79 -204 l0 0 ZM545 159 l-55 169 q11 8 18 15 q15 17 20 40 q5 22 5 48 q0 31 -6 55 q-6 23 -21 39 q-12 12 -31 19 q-19 7 -47 7 l-108 0 l0 -392 l77 0 l0 152 l23 0 l45 -152 l80 0 ZM456 431 q0 -11 -1 -22 q-2 -11 -7 -18 q-4 -4 -9 -6 q-5 -2 -12 -2 l-30 0 l0 96 l30 0 q7 0 12 -3 q5 -2 9 -6 q5 -7 7 -18 q1 -10 1 -21 l0 0 Z" /><glyph glyph-name="copyright" unicode="©" d="M779 356 q-4 154 -106 256 q-102 102 -256 106 q-154 -4 -256 -106 q-102 -102 -106 -256 q4 -154 106 -256 q102 -102 256 -106 q154 4 256 106 q102 102 106 256 l0 0 ZM693 356 q-2 -127 -79 -204 q-76 -77 -197 -79 q-121 2 -197 79 q-77 77 -79 204 q2 127 79 204 q76 77 197 79 q121 -2 197 -79 q77 -77 79 -204 l0 0 ZM527 272 l-76 0 q0 -11 -2 -20 q-2 -9 -6 -14 q-4 -5 -9 -8 q-5 -3 -14 -3 q-8 0 -14 4 q-6 4 -10 10 q-7 15 -8 46 q-2 32 -2 68 q0 36 2 67 q1 32 8 46 q3 7 9 11 q5 4 15 4 q10 0 15 -4 q6 -3 9 -10 q6 -12 6 -31 l77 0 q-2 29 -10 52 q-9 22 -24 37 q-14 14 -32 21 q-18 7 -41 7 q-31 0 -50 -12 q-20 -11 -32 -27 q-22 -31 -26 -78 q-3 -47 -2 -84 q-1 -37 2 -83 q4 -46 26 -77 q12 -17 32 -28 q19 -11 50 -11 q23 0 41 7 q18 7 32 21 q15 14 24 37 q8 23 10 52 l0 0 Z" /><glyph glyph-name="trademark" unicode="&#x2122;" d="M602 271 l0 441 l-76 0 l-78 -216 l-78 216 l-75 0 l0 -441 l85 0 l0 229 l46 -151 l44 0 l46 152 l0 -230 l86 0 ZM249 633 l0 79 l-229 0 l0 -79 l72 0 l0 -362 l85 0 l0 362 l72 0 Z" /><glyph glyph-name="plusminus" unicode="±" d="M430 333 l0 128 l-130 0 l0 130 l-128 0 l0 -130 l-130 0 l0 -128 l130 0 l0 -130 l128 0 l0 130 l130 0 ZM430 0 l0 128 l-388 0 l0 -128 l388 0 Z" /><glyph glyph-name="mu" unicode="µ" d="M396 0 l0 538 l-134 0 l0 -377 q0 -25 -12 -37 q-12 -12 -30 -12 q-18 0 -30 12 q-12 12 -12 37 l0 377 l-134 0 l0 -712 l128 0 l0 166 l3 0 q16 0 30 4 q13 4 24 9 q11 6 21 15 q10 9 18 19 l0 -39 l128 0 Z" /><glyph glyph-name="logicalnot" unicode="¬" d="M421 137 l0 242 l-370 0 l0 -128 l242 0 l0 -114 l128 0 Z" /><glyph glyph-name="nonbreakingspace" unicode=" " d="" /><glyph glyph-name="Agrave" unicode="à" d="M512 0 l-183 712 l-140 0 l-183 -712 l148 0 l23 111 l164 0 l23 -111 l148 0 ZM314 239 l-110 0 l55 264 l55 -264 ZM315 757 l-76 145 l-107 0 l95 -145 l88 0 Z" /><glyph glyph-name="Atilde" unicode="ã" d="M512 0 l-183 712 l-140 0 l-183 -712 l148 0 l23 111 l164 0 l23 -111 l148 0 ZM421 815 l-57 56 q-15 -14 -25 -18 q-11 -4 -22 -4 q-12 0 -23 4 q-11 3 -22 10 q-18 10 -33 14 q-15 4 -33 4 q-28 0 -51 -13 q-22 -13 -48 -39 l55 -56 q15 15 26 19 q11 4 22 3 q12 0 23 -4 q11 -3 22 -10 q18 -10 33 -14 q15 -3 33 -3 q28 0 51 12 q23 13 49 39 l0 0 ZM314 239 l-110 0 l55 264 l55 -264 Z" /><glyph glyph-name="Otilde" unicode="õ" d="M452 356 q2 75 -5 157 q-7 82 -48 136 q-24 30 -61 50 q-37 20 -96 21 q-59 -1 -95 -21 q-36 -20 -60 -50 q-41 -54 -48 -136 q-7 -82 -5 -157 q-2 -75 5 -157 q7 -82 48 -136 q24 -30 60 -50 q36 -20 95 -21 q59 1 96 21 q37 20 61 50 q41 54 48 136 q7 82 5 157 l0 0 ZM310 356 q0 -66 -3 -124 q-4 -57 -16 -84 q-6 -12 -18 -20 q-12 -8 -31 -8 q-19 0 -30 8 q-11 8 -17 20 q-12 27 -16 84 q-3 58 -3 124 q0 66 3 124 q4 57 16 84 q6 12 17 20 q11 8 30 8 q19 0 31 -8 q12 -8 18 -20 q12 -27 16 -84 q3 -58 3 -124 l0 0 ZM405 815 l-57 56 q-15 -14 -25 -18 q-11 -4 -22 -4 q-12 0 -23 4 q-11 3 -22 10 q-18 10 -33 14 q-15 4 -33 4 q-28 0 -51 -13 q-22 -13 -48 -39 l55 -56 q15 15 26 19 q11 4 22 3 q12 0 23 -4 q11 -3 22 -10 q18 -10 33 -14 q15 -3 33 -3 q28 0 51 12 q23 13 49 39 l0 0 Z" /><glyph glyph-name="divide" unicode="÷" d="M430 218 l0 128 l-388 0 l0 -128 l388 0 ZM311 414 l0 150 l-150 0 l0 -150 l150 0 ZM311 0 l0 150 l-150 0 l0 -150 l150 0 Z" /><glyph glyph-name="ydieresis" unicode="ÿ" d="M420 538 l-148 0 l-60 -325 l-60 325 l-148 0 l137 -538 l-2 -7 q-12 -38 -37 -44 q-26 -6 -57 -5 l0 -118 q81 -4 141 17 q60 21 84 108 l150 587 ZM174 592 l0 120 l-120 0 l0 -120 l120 0 ZM370 592 l0 120 l-120 0 l0 -120 l120 0 Z" /><glyph glyph-name="Ydieresis" unicode="&#x178;" d="M431 712 l-156 0 l-60 -258 l-60 258 l-156 0 l145 -444 l0 -268 l142 0 l0 268 l145 444 ZM177 762 l0 120 l-120 0 l0 -120 l120 0 ZM373 762 l0 120 l-120 0 l0 -120 l120 0 Z" /><glyph glyph-name="Acircumflex" unicode="â" d="M512 0 l-183 712 l-140 0 l-183 -712 l148 0 l23 111 l164 0 l23 -111 l148 0 ZM416 757 l-106 145 l-102 0 l-106 -145 l98 0 l59 77 l59 -77 l98 0 ZM314 239 l-110 0 l55 264 l55 -264 Z" /><glyph glyph-name="Ecircumflex" unicode="ê" d="M383 0 l0 128 l-186 0 l0 167 l160 0 l0 128 l-160 0 l0 161 l186 0 l0 128 l-328 0 l0 -712 l328 0 ZM379 757 l-106 145 l-102 0 l-106 -145 l98 0 l59 77 l59 -77 l98 0 Z" /><glyph glyph-name="Aacute" unicode="á" d="M512 0 l-183 712 l-140 0 l-183 -712 l148 0 l23 111 l164 0 l23 -111 l148 0 ZM314 239 l-110 0 l55 264 l55 -264 ZM386 902 l-107 0 l-76 -145 l88 0 l95 145 Z" /><glyph glyph-name="Edieresis" unicode="ë" d="M383 0 l0 128 l-186 0 l0 167 l160 0 l0 128 l-160 0 l0 161 l186 0 l0 128 l-328 0 l0 -712 l328 0 ZM184 762 l0 120 l-120 0 l0 -120 l120 0 ZM380 762 l0 120 l-120 0 l0 -120 l120 0 Z" /><glyph glyph-name="Egrave" unicode="è" d="M383 0 l0 128 l-186 0 l0 167 l160 0 l0 128 l-160 0 l0 161 l186 0 l0 128 l-328 0 l0 -712 l328 0 ZM278 757 l-76 145 l-107 0 l95 -145 l88 0 Z" /><glyph glyph-name="Iacute" unicode="í" d="M197 0 l0 712 l-142 0 l0 -712 l142 0 ZM253 902 l-107 0 l-76 -145 l88 0 l95 145 Z" /><glyph glyph-name="Icircumflex" unicode="î" d="M197 0 l0 712 l-142 0 l0 -712 l142 0 ZM283 757 l-106 145 l-102 0 l-106 -145 l98 0 l59 77 l59 -77 l98 0 Z" /><glyph glyph-name="Idieresis" unicode="ï" d="M197 0 l0 712 l-142 0 l0 -712 l142 0 ZM89 762 l0 120 l-120 0 l0 -120 l120 0 ZM285 762 l0 120 l-120 0 l0 -120 l120 0 Z" /><glyph glyph-name="Igrave" unicode="ì" d="M197 0 l0 712 l-142 0 l0 -712 l142 0 ZM197 757 l-76 145 l-107 0 l95 -145 l88 0 Z" /><glyph glyph-name="Oacute" unicode="ó" d="M452 356 q2 75 -5 157 q-7 82 -48 136 q-24 30 -61 50 q-37 20 -96 21 q-59 -1 -95 -21 q-36 -20 -60 -50 q-41 -54 -48 -136 q-7 -82 -5 -157 q-2 -75 5 -157 q7 -82 48 -136 q24 -30 60 -50 q36 -20 95 -21 q59 1 96 21 q37 20 61 50 q41 54 48 136 q7 82 5 157 l0 0 ZM310 356 q0 -66 -3 -124 q-4 -57 -16 -84 q-6 -12 -18 -20 q-12 -8 -31 -8 q-19 0 -30 8 q-11 8 -17 20 q-12 27 -16 84 q-3 58 -3 124 q0 66 3 124 q4 57 16 84 q6 12 17 20 q11 8 30 8 q19 0 31 -8 q12 -8 18 -20 q12 -27 16 -84 q3 -58 3 -124 l0 0 ZM371 902 l-107 0 l-76 -145 l88 0 l95 145 Z" /><glyph glyph-name="Ocircumflex" unicode="ô" d="M452 356 q2 75 -5 157 q-7 82 -48 136 q-24 30 -61 50 q-37 20 -96 21 q-59 -1 -95 -21 q-36 -20 -60 -50 q-41 -54 -48 -136 q-7 -82 -5 -157 q-2 -75 5 -157 q7 -82 48 -136 q24 -30 60 -50 q36 -20 95 -21 q59 1 96 21 q37 20 61 50 q41 54 48 136 q7 82 5 157 l0 0 ZM310 356 q0 -66 -3 -124 q-4 -57 -16 -84 q-6 -12 -18 -20 q-12 -8 -31 -8 q-19 0 -30 8 q-11 8 -17 20 q-12 27 -16 84 q-3 58 -3 124 q0 66 3 124 q4 57 16 84 q6 12 17 20 q11 8 30 8 q19 0 31 -8 q12 -8 18 -20 q12 -27 16 -84 q3 -58 3 -124 l0 0 ZM400 757 l-106 145 l-102 0 l-106 -145 l98 0 l59 77 l59 -77 l98 0 Z" /><glyph glyph-name="Ograve" unicode="ò" d="M452 356 q2 75 -5 157 q-7 82 -48 136 q-24 30 -61 50 q-37 20 -96 21 q-59 -1 -95 -21 q-36 -20 -60 -50 q-41 -54 -48 -136 q-7 -82 -5 -157 q-2 -75 5 -157 q7 -82 48 -136 q24 -30 60 -50 q36 -20 95 -21 q59 1 96 21 q37 20 61 50 q41 54 48 136 q7 82 5 157 l0 0 ZM310 356 q0 -66 -3 -124 q-4 -57 -16 -84 q-6 -12 -18 -20 q-12 -8 -31 -8 q-19 0 -30 8 q-11 8 -17 20 q-12 27 -16 84 q-3 58 -3 124 q0 66 3 124 q4 57 16 84 q6 12 17 20 q11 8 30 8 q19 0 31 -8 q12 -8 18 -20 q12 -27 16 -84 q3 -58 3 -124 l0 0 ZM299 757 l-76 145 l-107 0 l95 -145 l88 0 Z" /><glyph glyph-name="Uacute" unicode="ú" d="M452 191 l0 521 l-142 0 l0 -528 q-1 -34 -17 -49 q-17 -15 -42 -15 q-25 0 -41 15 q-17 15 -18 49 l0 528 l-142 0 l0 -521 q0 -43 14 -78 q13 -36 39 -62 q29 -29 66 -44 q37 -15 82 -15 q45 0 82 15 q37 15 66 44 q26 26 39 62 q14 35 14 78 l0 0 ZM379 902 l-107 0 l-76 -145 l88 0 l95 145 Z" /><glyph glyph-name="Ucircumflex" unicode="û" d="M452 191 l0 521 l-142 0 l0 -528 q-1 -34 -17 -49 q-17 -15 -42 -15 q-25 0 -41 15 q-17 15 -18 49 l0 528 l-142 0 l0 -521 q0 -43 14 -78 q13 -36 39 -62 q29 -29 66 -44 q37 -15 82 -15 q45 0 82 15 q37 15 66 44 q26 26 39 62 q14 35 14 78 l0 0 ZM408 757 l-106 145 l-102 0 l-106 -145 l98 0 l59 77 l59 -77 l98 0 Z" /><glyph glyph-name="Ugrave" unicode="ù" d="M452 191 l0 521 l-142 0 l0 -528 q-1 -34 -17 -49 q-17 -15 -42 -15 q-25 0 -41 15 q-17 15 -18 49 l0 528 l-142 0 l0 -521 q0 -43 14 -78 q13 -36 39 -62 q29 -29 66 -44 q37 -15 82 -15 q45 0 82 15 q37 15 66 44 q26 26 39 62 q14 35 14 78 l0 0 ZM307 757 l-76 145 l-107 0 l95 -145 l88 0 Z" /><glyph glyph-name="Euro" unicode="&#x20ac;" d="M492 203 l-142 0 q0 -31 -12 -56 q-12 -26 -48 -27 q-19 0 -31 8 q-12 8 -18 20 q-7 14 -9 32 q-3 19 -4 40 l92 0 l0 101 l-96 0 l0 70 l96 0 l0 101 l-92 0 q1 21 3 40 q2 18 9 32 q6 12 18 20 q13 8 32 8 q36 -1 48 -26 q11 -25 11 -56 l142 0 q-2 51 -19 92 q-16 40 -44 67 q-27 26 -60 38 q-34 13 -78 13 q-59 -1 -95 -21 q-36 -20 -60 -50 q-24 -30 -36 -72 q-13 -43 -14 -85 l-55 0 l0 -101 l52 0 l0 -70 l-52 0 l0 -101 l55 0 q1 -42 14 -85 q12 -42 36 -72 q24 -30 60 -50 q36 -20 95 -21 q44 0 78 13 q33 13 60 38 q28 27 45 68 q17 41 19 92 l0 0 Z" /></font>
</defs>
</svg>
